<?xml version="1.0" encoding="UTF-8"?><svg id="svg1" xmlns="http://www.w3.org/2000/svg" width="999.8" height="699.9" viewBox="0 0 999.8 699.9">    <path id="door" d="M.41,270.01l113.85,103.93c-7.08,4.89-42.18,61.34-111.38,51.17"          style="fill:none; stroke:#000; stroke-miterlimit:93.54; stroke-width:1.21px;"/>    <g id="rack-1">        <g id="seperators-1">            <path id="leftFloor-1" d="M93.66,148.22h116.74"                  style="fill:none; stroke:#000; stroke-miterlimit:13.33; stroke-width:1.33px;"/>            <path id="rightFloor-1" d="M210.32,148.22h113.52"                  style="fill:none; stroke:#000; stroke-miterlimit:13.33; stroke-width:1.33px;"/>            <path id="topDivider-1" d="M209.99,147.72V41.89"                  style="fill:none; stroke:#000; stroke-miterlimit:13.33; stroke-width:1.33px;"/>            <path id="bottomDivider-1" d="M209.99,257.54v-109.82"                  style="fill:none; stroke:#000; stroke-miterlimit:13.33; stroke-width:1.33px;"/>        </g>        <g id="cageC-1">            <path id="CY-1" d="M93.75,257.44v-109.82"                  style="fill:none; stroke:#000; stroke-miterlimit:13.33; stroke-width:1.33px;"/>            <path id="CX-1" d="M93.25,258.04h117.56"                  style="fill:none; stroke:#000; stroke-miterlimit:13.33; stroke-width:1.33px;"/>            <rect id="cage-3" x="94.32" y="149.62" width="115.67" height="107.82" style="fill:none; stroke-width:0px;"/>            <text transform="translate(144 204.9)"                  style="fill:#000; font-family:MyriadPro-Regular, &apos;Myriad Pro&apos;; font-size:24px;">                <tspan x="0" y="0">3</tspan>            </text>        </g>        <g id="cageD-1">            <path id="DY-1" d="M324.26,257.54v-109.82"                  style="fill:none; stroke:#000; stroke-miterlimit:13.33; stroke-width:1.33px;"/>            <path id="DX-1" d="M210.32,258.04h114.35"                  style="fill:none; stroke:#000; stroke-miterlimit:13.33; stroke-width:1.33px;"/>            <rect id="cage-4" x="210.81" y="149.62" width="113.03" height="107.82"                  style="fill:none; stroke-width:0px;"/>            <text transform="translate(261 204.9)"                  style="fill:#000; font-family:MyriadPro-Regular, &apos;Myriad Pro&apos;; font-size:24px;">                <tspan x="0" y="0">4</tspan>            </text>        </g>        <g id="cageA-1">            <path id="AY-1" d="M93.75,147.72V41.79"                  style="fill:none; stroke:#000; stroke-miterlimit:13.33; stroke-width:1.33px;"/>            <path id="AX-1" d="M94.32,42.39h115.75"                  style="fill:none; stroke:#000; stroke-miterlimit:13.33; stroke-width:1.33px;"/>            <rect id="cage-1" x="93.25" y="43.09" width="116.74" height="104.63" style="fill:none; stroke-width:0px;"/>            <text transform="translate(144 96.9)"                  style="fill:#000; font-family:MyriadPro-Regular, &apos;Myriad Pro&apos;; font-size:24px;">                <tspan x="0" y="0">1</tspan>            </text>        </g>        <g id="cageB-1">            <path id="BY-1" d="M324.26,147.72V41.89"                  style="fill:none; stroke:#000; stroke-miterlimit:13.33; stroke-width:1.33px;"/>            <path id="BX-1" d="M208.67,42.39h116"                  style="fill:none; stroke:#000; stroke-miterlimit:13.33; stroke-width:1.33px;"/>            <rect id="cage-2" x="210.32" y="43.09" width="113.52" height="104.53" style="fill:none; stroke-width:0px;"/>            <text transform="translate(261 96.9)"                  style="fill:#000; font-family:MyriadPro-Regular, &apos;Myriad Pro&apos;; font-size:24px;">                <tspan x="0" y="0">2</tspan>            </text>        </g>    </g>    <g id="rack-2">        <g id="seperators-2">            <path id="leftFloor-2" d="M399.72,147.92h116.74"                  style="fill:none; stroke:#000; stroke-miterlimit:13.33; stroke-width:1.33px;"/>            <path id="rightFloor-2" d="M516.46,147.92h113.52"                  style="fill:none; stroke:#000; stroke-miterlimit:13.33; stroke-width:1.33px;"/>            <path id="topDivider-2" d="M516.13,147.42V41.59"                  style="fill:none; stroke:#000; stroke-miterlimit:13.33; stroke-width:1.33px;"/>            <path id="bottomDivider-2" d="M516.13,257.24v-109.82"                  style="fill:none; stroke:#000; stroke-miterlimit:13.33; stroke-width:1.33px;"/>        </g>        <g id="cageC-2">            <path id="CY-2" d="M399.8,257.14v-109.82"                  style="fill:none; stroke:#000; stroke-miterlimit:13.33; stroke-width:1.33px;"/>            <path id="CX-2" d="M399.31,257.74h117.56"                  style="fill:none; stroke:#000; stroke-miterlimit:13.33; stroke-width:1.33px;"/>            <rect id="cage-7" x="400.46" y="149.32" width="115.67" height="107.82"                  style="fill:none; stroke-width:0px;"/>            <text transform="translate(450 204.9)"                  style="fill:#000; font-family:MyriadPro-Regular, &apos;Myriad Pro&apos;; font-size:24px;">                <tspan x="0" y="0">7</tspan>            </text>        </g>        <g id="cageD-2">            <path id="DY-2" d="M630.31,257.24v-109.82"                  style="fill:none; stroke:#000; stroke-miterlimit:13.33; stroke-width:1.33px;"/>            <path id="DX-2" d="M516.46,257.74h114.35"                  style="fill:none; stroke:#000; stroke-miterlimit:13.33; stroke-width:1.33px;"/>            <rect id="cage-8" x="516.87" y="149.32" width="113.03" height="107.82"                  style="fill:none; stroke-width:0px;"/>            <text transform="translate(567 204.9) scale(.91 1)"                  style="fill:#000; font-family:MyriadPro-Regular, &apos;Myriad Pro&apos;; font-size:24px;">                <tspan x="0" y="0">8</tspan>            </text>        </g>        <g id="cageA-2">            <path id="AY-2" d="M399.8,147.42V41.49"                  style="fill:none; stroke:#000; stroke-miterlimit:13.33; stroke-width:1.33px;"/>            <path id="AX-2" d="M400.46,42.09h115.75"                  style="fill:none; stroke:#000; stroke-miterlimit:13.33; stroke-width:1.33px;"/>            <rect id="cage-5" x="399.31" y="42.79" width="116.74" height="104.63" style="fill:none; stroke-width:0px;"/>            <text transform="translate(450 96.9)"                  style="fill:#000; font-family:MyriadPro-Regular, &apos;Myriad Pro&apos;; font-size:24px;">                <tspan x="0" y="0">5</tspan>            </text>        </g>        <g id="cageB-2">            <path id="BY-2" d="M630.31,147.42V41.59"                  style="fill:none; stroke:#000; stroke-miterlimit:13.33; stroke-width:1.33px;"/>            <path id="BX-2" d="M514.81,42.09h116"                  style="fill:none; stroke:#000; stroke-miterlimit:13.33; stroke-width:1.33px;"/>            <rect id="cage-6" x="516.46" y="42.79" width="113.52" height="104.53" style="fill:none; stroke-width:0px;"/>            <text transform="translate(567 96.9)"                  style="fill:#000; font-family:MyriadPro-Regular, &apos;Myriad Pro&apos;; font-size:24px;">                <tspan x="0" y="0">6</tspan>            </text>        </g>    </g>    <g id="rack-5">        <g id="seperators-5">            <path id="rightFloor-5" d="M399.14,532.03h116.74"                  style="fill:none; stroke:#000; stroke-miterlimit:13.33; stroke-width:1.33px;"/>            <path id="leftFloor-5" d="M515.8,532.03h113.52"                  style="fill:none; stroke:#000; stroke-miterlimit:13.33; stroke-width:1.33px;"/>            <path id="bottomDivider-5" d="M515.47,531.53v-105.83"                  style="fill:none; stroke:#000; stroke-miterlimit:13.33; stroke-width:1.33px;"/>            <path id="topDivider-5" d="M515.47,641.35v-109.82"                  style="fill:none; stroke:#000; stroke-miterlimit:13.33; stroke-width:1.33px;"/>        </g>        <g id="cageC-5">            <path id="CY-5" d="M399.23,641.25v-109.82"                  style="fill:none; stroke:#000; stroke-miterlimit:13.33; stroke-width:1.33px;"/>            <path id="CX-5" d="M398.73,641.85h117.56"                  style="fill:none; stroke:#000; stroke-miterlimit:13.33; stroke-width:1.33px;"/>            <rect id="cage-18" x="399.8" y="533.43" width="115.67" height="107.82"                  style="fill:none; stroke-width:0px;"/>            <text transform="translate(441 591.9)"                  style="fill:#000; font-family:MyriadPro-Regular, &apos;Myriad Pro&apos;; font-size:24px;">                <tspan x="0" y="0">18</tspan>            </text>        </g>        <g id="cageD-5">            <path id="DY-5" d="M629.73,641.35v-109.82"                  style="fill:none; stroke:#000; stroke-miterlimit:13.33; stroke-width:1.33px;"/>            <path id="DX-5" d="M515.8,641.85h114.35"                  style="fill:none; stroke:#000; stroke-miterlimit:13.33; stroke-width:1.33px;"/>            <rect id="cage-17" x="516.29" y="533.43" width="113.03" height="107.82"                  style="fill:none; stroke-width:0px;"/>            <text transform="translate(558 591.9)"                  style="fill:#000; font-family:MyriadPro-Regular, &apos;Myriad Pro&apos;; font-size:24px;">                <tspan x="0" y="0">17</tspan>            </text>        </g>        <g id="cageA-5">            <path id="AY-5" d="M399.23,531.53v-105.93"                  style="fill:none; stroke:#000; stroke-miterlimit:13.33; stroke-width:1.33px;"/>            <path id="AX-5" d="M399.8,426.2h115.75"                  style="fill:none; stroke:#000; stroke-miterlimit:13.33; stroke-width:1.33px;"/>            <rect id="cage-20" x="398.73" y="426.9" width="116.74" height="104.63"                  style="fill:none; stroke-width:0px;"/>            <text transform="translate(441 483.9)"                  style="fill:#000; font-family:MyriadPro-Regular, &apos;Myriad Pro&apos;; font-size:24px;">                <tspan x="0" y="0">20</tspan>            </text>        </g>        <g id="cageB-5">            <path id="BY-5" d="M629.73,531.53v-105.83"                  style="fill:none; stroke:#000; stroke-miterlimit:13.33; stroke-width:1.33px;"/>            <path id="BX-5" d="M514.15,426.2h116"                  style="fill:none; stroke:#000; stroke-miterlimit:13.33; stroke-width:1.33px;"/>            <rect id="cage-19" x="515.8" y="426.9" width="113.52" height="104.53" style="fill:none; stroke-width:0px;"/>            <text transform="translate(558 483.9)"                  style="fill:#000; font-family:MyriadPro-Regular, &apos;Myriad Pro&apos;; font-size:24px;">                <tspan x="0" y="0">19</tspan>            </text>        </g>    </g>    <g id="rack-3">        <g id="seperators-3">            <path id="leftFloor-3" d="M718.46,149.52h116.74"                  style="fill:none; stroke:#000; stroke-miterlimit:13.33; stroke-width:1.33px;"/>            <path id="rightFloor-3" d="M835.12,149.52h113.52"                  style="fill:none; stroke:#000; stroke-miterlimit:13.33; stroke-width:1.33px;"/>            <path id="topDivider-3" d="M834.79,149.02V43.19"                  style="fill:none; stroke:#000; stroke-miterlimit:13.33; stroke-width:1.33px;"/>            <path id="bottomDivider-3" d="M834.79,258.83v-109.82"                  style="fill:none; stroke:#000; stroke-miterlimit:13.33; stroke-width:1.33px;"/>        </g>        <g id="cageC-3">            <path id="CY-3" d="M718.54,258.73v-109.82"                  style="fill:none; stroke:#000; stroke-miterlimit:13.33; stroke-width:1.33px;"/>            <path id="CX-3" d="M718.05,259.33h117.56"                  style="fill:none; stroke:#000; stroke-miterlimit:13.33; stroke-width:1.33px;"/>            <rect id="cage-11" x="719.12" y="150.91" width="115.67" height="107.82"                  style="fill:none; stroke-width:0px;"/>            <text transform="translate(765 204.9)"                  style="fill:#000; font-family:MyriadPro-Regular, &apos;Myriad Pro&apos;; font-size:24px;">                <tspan x="0" y="0">11</tspan>            </text>        </g>        <g id="cageD-3">            <path id="DY-3" d="M949.05,258.83v-109.82"                  style="fill:none; stroke:#000; stroke-miterlimit:13.33; stroke-width:1.33px;"/>            <path id="DX-3" d="M835.12,259.33h114.35"                  style="fill:none; stroke:#000; stroke-miterlimit:13.33; stroke-width:1.33px;"/>            <rect id="cage-12" x="835.61" y="150.91" width="113.03" height="107.82"                  style="fill:none; stroke-width:0px;"/>            <text transform="translate(882 204.9)"                  style="fill:#000; font-family:MyriadPro-Regular, &apos;Myriad Pro&apos;; font-size:24px;">                <tspan x="0" y="0">12</tspan>            </text>        </g>        <g id="cageA-3">            <path id="AY-3" d="M718.54,149.02V43.09"                  style="fill:none; stroke:#000; stroke-miterlimit:13.33; stroke-width:1.33px;"/>            <path id="AX-3" d="M719.12,43.69h115.75"                  style="fill:none; stroke:#000; stroke-miterlimit:13.33; stroke-width:1.33px;"/>            <rect id="cage-9" x="718.05" y="44.39" width="116.74" height="104.63" style="fill:none; stroke-width:0px;"/>            <text transform="translate(765 96.9)"                  style="fill:#000; font-family:MyriadPro-Regular, &apos;Myriad Pro&apos;; font-size:24px;">                <tspan x="0" y="0">9</tspan>            </text>        </g>        <g id="cageB-3">            <path id="BY-3" d="M949.05,149.02V43.19"                  style="fill:none; stroke:#000; stroke-miterlimit:13.33; stroke-width:1.33px;"/>            <path id="BX-3" d="M833.47,43.69h116"                  style="fill:none; stroke:#000; stroke-miterlimit:13.33; stroke-width:1.33px;"/>            <rect id="cage-10" x="835.12" y="44.39" width="113.52" height="104.53"                  style="fill:none; stroke-width:0px;"/>            <text transform="translate(882 96.9)"                  style="fill:#000; font-family:MyriadPro-Regular, &apos;Myriad Pro&apos;; font-size:24px;">                <tspan x="0" y="0">10</tspan>            </text>        </g>    </g>    <g id="rack-4">        <g id="seperators-4">            <path id="rightFloor-4" d="M718.21,532.63h116.74"                  style="fill:none; stroke:#000; stroke-miterlimit:13.33; stroke-width:1.33px;"/>            <path id="leftFloor-4" d="M834.87,532.63h113.52"                  style="fill:none; stroke:#000; stroke-miterlimit:13.33; stroke-width:1.33px;"/>            <path id="bottomDivider-4" d="M834.54,532.13v-105.83"                  style="fill:none; stroke:#000; stroke-miterlimit:13.33; stroke-width:1.33px;"/>            <path id="topDivider-4" d="M834.54,641.95v-109.82"                  style="fill:none; stroke:#000; stroke-miterlimit:13.33; stroke-width:1.33px;"/>        </g>        <g id="cageC-4">            <path id="CY-4" d="M718.3,641.85v-109.82"                  style="fill:none; stroke:#000; stroke-miterlimit:13.33; stroke-width:1.33px;"/>            <path id="CX-4" d="M717.8,642.45h117.56"                  style="fill:none; stroke:#000; stroke-miterlimit:13.33; stroke-width:1.33px;"/>            <rect id="cage-14" x="718.87" y="534.03" width="115.67" height="107.82"                  style="fill:none; stroke-width:0px;"/>            <text transform="translate(765 591.9)"                  style="fill:#000; font-family:MyriadPro-Regular, &apos;Myriad Pro&apos;; font-size:24px;">                <tspan x="0" y="0">14</tspan>            </text>        </g>        <g id="cageD-4">            <path id="DY-4" d="M948.81,641.95v-109.82"                  style="fill:none; stroke:#000; stroke-miterlimit:13.33; stroke-width:1.33px;"/>            <path id="DX-4" d="M834.87,642.45h114.35"                  style="fill:none; stroke:#000; stroke-miterlimit:13.33; stroke-width:1.33px;"/>            <rect id="cage-13" x="835.36" y="534.03" width="113.03" height="107.82"                  style="fill:none; stroke-width:0px;"/>            <text transform="translate(882 591.9)"                  style="fill:#000; font-family:MyriadPro-Regular, &apos;Myriad Pro&apos;; font-size:24px;">                <tspan x="0" y="0">13</tspan>            </text>        </g>        <g id="cageA-4">            <path id="AY-4" d="M718.3,532.13v-105.93"                  style="fill:none; stroke:#000; stroke-miterlimit:13.33; stroke-width:1.33px;"/>            <path id="AX-4" d="M718.87,426.8h115.75"                  style="fill:none; stroke:#000; stroke-miterlimit:13.33; stroke-width:1.33px;"/>            <rect id="cage-16" x="717.8" y="427.5" width="116.74" height="104.63" style="fill:none; stroke-width:0px;"/>            <text transform="translate(765 483.9)"                  style="fill:#000; font-family:MyriadPro-Regular, &apos;Myriad Pro&apos;; font-size:24px;">                <tspan x="0" y="0">16</tspan>            </text>        </g>        <g id="cageB-4">            <path id="BY-4" d="M948.81,532.13v-105.83"                  style="fill:none; stroke:#000; stroke-miterlimit:13.33; stroke-width:1.33px;"/>            <path id="BX-4" d="M833.22,426.8h116"                  style="fill:none; stroke:#000; stroke-miterlimit:13.33; stroke-width:1.33px;"/>            <rect id="cage-15" x="834.87" y="427.5" width="113.52" height="104.53"                  style="fill:none; stroke-width:0px;"/>            <text transform="translate(882 483.9)"                  style="fill:#000; font-family:MyriadPro-Regular, &apos;Myriad Pro&apos;; font-size:24px;">                <tspan x="0" y="0">15</tspan>            </text>        </g>    </g>    <g id="rack-6">        <g id="seperators-6">            <path id="rightFloor-6" d="M93.34,532.33h116.74"                  style="fill:none; stroke:#000; stroke-miterlimit:13.33; stroke-width:1.33px;"/>            <path id="leftFloor-6" d="M209.99,532.33h113.52"                  style="fill:none; stroke:#000; stroke-miterlimit:13.33; stroke-width:1.33px;"/>            <path id="bottomDivider-6" d="M209.66,531.83v-105.83"                  style="fill:none; stroke:#000; stroke-miterlimit:13.33; stroke-width:1.33px;"/>            <path id="topDivider-6" d="M209.66,641.65v-109.82"                  style="fill:none; stroke:#000; stroke-miterlimit:13.33; stroke-width:1.33px;"/>        </g>        <g id="cageC-6">            <path id="CY-6" d="M93.42,641.55v-109.82"                  style="fill:none; stroke:#000; stroke-miterlimit:13.33; stroke-width:1.33px;"/>            <path id="CX-6" d="M93.01,642.15h117.56"                  style="fill:none; stroke:#000; stroke-miterlimit:13.33; stroke-width:1.33px;"/>            <rect id="cage-22" x="94.08" y="533.73" width="115.67" height="107.82"                  style="fill:none; stroke-width:0px;"/>            <text transform="translate(135 591.9)"                  style="fill:#000; font-family:MyriadPro-Regular, &apos;Myriad Pro&apos;; font-size:24px;">                <tspan x="0" y="0">22</tspan>            </text>        </g>        <g id="cageD-6">            <path id="DY-6" d="M323.93,641.65v-109.82"                  style="fill:none; stroke:#000; stroke-miterlimit:13.33; stroke-width:1.33px;"/>            <path id="DX-6" d="M209.99,642.15h114.35"                  style="fill:none; stroke:#000; stroke-miterlimit:13.33; stroke-width:1.33px;"/>            <rect id="cage-21" x="210.48" y="533.73" width="113.03" height="107.82"                  style="fill:none; stroke-width:0px;"/>            <text transform="translate(252 591.9)"                  style="fill:#000; font-family:MyriadPro-Regular, &apos;Myriad Pro&apos;; font-size:24px;">                <tspan x="0" y="0">21</tspan>            </text>        </g>        <g id="cageA-6">            <path id="AY-6" d="M93.42,531.83v-105.93"                  style="fill:none; stroke:#000; stroke-miterlimit:13.33; stroke-width:1.33px;"/>            <path id="AX-6" d="M94.08,426.5h115.75"                  style="fill:none; stroke:#000; stroke-miterlimit:13.33; stroke-width:1.33px;"/>            <rect id="cage-24" x="93.01" y="427.2" width="116.74" height="104.63" style="fill:none; stroke-width:0px;"/>            <text transform="translate(135 483.9)"                  style="fill:#000; font-family:MyriadPro-Regular, &apos;Myriad Pro&apos;; font-size:24px;">                <tspan x="0" y="0">24</tspan>            </text>        </g>        <g id="cageB-6">            <path id="BY-6" d="M323.93,531.83v-105.83"                  style="fill:none; stroke:#000; stroke-miterlimit:13.33; stroke-width:1.33px;"/>            <path id="BX-6" d="M208.34,426.5h116"                  style="fill:none; stroke:#000; stroke-miterlimit:13.33; stroke-width:1.33px;"/>            <rect id="cage-23" x="209.99" y="427.2" width="113.52" height="104.53"                  style="fill:none; stroke-width:0px;"/>            <text transform="translate(252 483.9)"                  style="fill:#000; font-family:MyriadPro-Regular, &apos;Myriad Pro&apos;; font-size:24px;">                <tspan x="0" y="0">23</tspan>            </text>        </g>    </g>    <path id="hose"          d="M962.56,323.77c-.66,1.99-1.98,2.69-2.14,3.69-.16,1,.08,2.09,1.15,2.39,1.07.3,1.65-.7,1.81-1.7.16-1-.74-2.29-.82-4.39h0ZM942.21,338.23c-.82,0-1.65.4-2.22,1.1h0c-.58.7-.91,1.7-.91,2.79s.33,2.09.91,2.79c.58.7,1.32,1.1,2.22,1.1.82,0,1.65-.4,2.22-1.1h0c.58-.7.91-1.7.91-2.79s-.33-2.09-.91-2.79c-.58-.7-1.4-1.1-2.22-1.1ZM951.36,322.77c-1.57-.3-2.97-.4-4.28-.3-4.2.2-7.33,2.19-9.47,4.79,1.4-.7,2.97-1.1,4.53-1.1,3.46,0,6.67,1.8,8.98,4.59,2.31,2.89,3.71,6.78,3.71,11.17s-1.4,8.38-3.71,11.17c-2.31,2.89-5.44,4.59-8.98,4.59s-6.67-1.8-8.98-4.59c-2.31-2.89-3.71-6.78-3.71-11.17,0-6.68,1.24-12.47,5.03-17.46,2.8-3.69,6.84-6.48,12.44-6.78,1.57-.1,3.21,0,4.94.4l-.49,4.69ZM942.21,330.95c-2.47,0-4.7,1.3-6.34,3.29-1.65,1.99-2.64,4.79-2.64,7.88s.99,5.88,2.64,7.88c1.65,1.99,3.87,3.29,6.34,3.29s4.7-1.3,6.34-3.29c1.65-1.99,2.64-4.79,2.64-7.88s-.99-5.88-2.64-7.88c-1.65-2.09-3.87-3.29-6.34-3.29ZM937.35,336.04c1.24-1.6,2.97-2.49,4.86-2.49s3.62,1,4.86,2.49h0c1.24,1.6,1.98,3.69,1.98,6.08s-.74,4.49-1.98,6.08h0c-1.24,1.6-2.97,2.49-4.86,2.49s-3.62-1-4.86-2.49c-1.24-1.6-1.98-3.69-1.98-6.08s.74-4.49,1.98-6.08ZM953.5,317.18l1.15.2c.33.1.49.4.49.8l-.66,5.88c-.08.4-.33.7-.66.6l-1.15-.2c-.33-.1-.49-.4-.49-.8l.66-5.88c0-.4.33-.7.66-.6ZM955.81,318.78l7,2.29-.25,2.09-7.33.4.58-4.79Z"          style="fill:#000; fill-rule:evenodd; stroke-width:0px;"/>    <path id="border" d="M999.8,0H.98v699.9h998.82V0ZM998.15,698.9H2.63V1.99h995.52v696.91Z"          style="fill:#000; stroke-width:0px;"/>    <text transform="translate(27 591.9)"          style="fill:#000; font-family:MyriadPro-Regular, &apos;Myriad Pro&apos;; font-size:24px;">        <tspan x="0" y="0" style="letter-spacing:-.07em;">T</tspan>        <tspan x="10.22" y="0" style="letter-spacing:0em;">op</tspan>    </text>    <text transform="translate(9 483.9)"          style="fill:#000; font-family:MyriadPro-Regular, &apos;Myriad Pro&apos;; font-size:24px;">        <tspan x="0" y="0" style="letter-spacing:0em;">B</tspan>        <tspan x="13.1" y="0" style="letter-spacing:0em;">ot</tspan>        <tspan x="34.22" y="0" style="letter-spacing:0em;">t</tspan>        <tspan x="42.02" y="0">om</tspan>    </text>    <text transform="translate(9 204.9)"          style="fill:#000; font-family:MyriadPro-Regular, &apos;Myriad Pro&apos;; font-size:24px;">        <tspan x="0" y="0" style="letter-spacing:0em;">B</tspan>        <tspan x="13.1" y="0" style="letter-spacing:0em;">ot</tspan>        <tspan x="34.22" y="0" style="letter-spacing:0em;">t</tspan>        <tspan x="42.02" y="0">om</tspan>    </text>    <text transform="translate(27 96.9)"          style="fill:#000; font-family:MyriadPro-Regular, &apos;Myriad Pro&apos;; font-size:24px;">        <tspan x="0" y="0" style="letter-spacing:-.07em;">T</tspan>        <tspan x="10.22" y="0" style="letter-spacing:0em;">op</tspan>    </text></svg>