<?xml version="1.0" encoding="UTF-8"?><svg id="svg1" xmlns="http://www.w3.org/2000/svg" width="999.8" height="699.9" viewBox="0 0 999.8 699.9">    <path id="door" d="M.41,270.01l113.85,103.93c-7.08,4.89-42.18,61.34-111.38,51.17"          style="fill:none; stroke:#000; stroke-miterlimit:93.54; stroke-width:1.21px;"/>    <path id="hose"          d="M962.56,323.77c-.66,1.99-1.98,2.69-2.14,3.69-.16,1,.08,2.09,1.15,2.39,1.07.3,1.65-.7,1.81-1.7.16-1-.74-2.29-.82-4.39h0ZM942.21,338.23c-.82,0-1.65.4-2.22,1.1h0c-.58.7-.91,1.7-.91,2.79s.33,2.09.91,2.79c.58.7,1.32,1.1,2.22,1.1.82,0,1.65-.4,2.22-1.1h0c.58-.7.91-1.7.91-2.79s-.33-2.09-.91-2.79c-.58-.7-1.4-1.1-2.22-1.1ZM951.36,322.77c-1.57-.3-2.97-.4-4.28-.3-4.2.2-7.33,2.19-9.47,4.79,1.4-.7,2.97-1.1,4.53-1.1,3.46,0,6.67,1.8,8.98,4.59,2.31,2.89,3.71,6.78,3.71,11.17s-1.4,8.38-3.71,11.17c-2.31,2.89-5.44,4.59-8.98,4.59s-6.67-1.8-8.98-4.59c-2.31-2.89-3.71-6.78-3.71-11.17,0-6.68,1.24-12.47,5.03-17.46,2.8-3.69,6.84-6.48,12.44-6.78,1.57-.1,3.21,0,4.94.4l-.49,4.69ZM942.21,330.95c-2.47,0-4.7,1.3-6.34,3.29-1.65,1.99-2.64,4.79-2.64,7.88s.99,5.88,2.64,7.88c1.65,1.99,3.87,3.29,6.34,3.29s4.7-1.3,6.34-3.29c1.65-1.99,2.64-4.79,2.64-7.88s-.99-5.88-2.64-7.88c-1.65-2.09-3.87-3.29-6.34-3.29ZM937.35,336.04c1.24-1.6,2.97-2.49,4.86-2.49s3.62,1,4.86,2.49h0c1.24,1.6,1.98,3.69,1.98,6.08s-.74,4.49-1.98,6.08h0c-1.24,1.6-2.97,2.49-4.86,2.49s-3.62-1-4.86-2.49c-1.24-1.6-1.98-3.69-1.98-6.08s.74-4.49,1.98-6.08ZM953.5,317.18l1.15.2c.33.1.49.4.49.8l-.66,5.88c-.08.4-.33.7-.66.6l-1.15-.2c-.33-.1-.49-.4-.49-.8l.66-5.88c0-.4.33-.7.66-.6ZM955.81,318.78l7,2.29-.25,2.09-7.33.4.58-4.79Z"          style="fill:#000; fill-rule:evenodd; stroke-width:0px;"/>    <path id="border" d="M999.8,0H.98v699.9h998.82V0ZM998.15,698.9H2.63V1.99h995.52v696.91Z"          style="fill:#000; stroke-width:0px;"/>    <text transform="translate(27 591.9)"          style="fill:#000; font-family:MyriadPro-Regular, &apos;Myriad Pro&apos;; font-size:24px;">        <tspan x="0" y="0" style="letter-spacing:-.07em;">T</tspan>        <tspan x="10.22" y="0" style="letter-spacing:0em;">op</tspan>    </text>    <text transform="translate(9 483.9)"          style="fill:#000; font-family:MyriadPro-Regular, &apos;Myriad Pro&apos;; font-size:24px;">        <tspan x="0" y="0" style="letter-spacing:0em;">B</tspan>        <tspan x="13.1" y="0" style="letter-spacing:0em;">ot</tspan>        <tspan x="34.22" y="0" style="letter-spacing:0em;">t</tspan>        <tspan x="42.02" y="0">om</tspan>    </text>    <text transform="translate(9 204.9)"          style="fill:#000; font-family:MyriadPro-Regular, &apos;Myriad Pro&apos;; font-size:24px;">        <tspan x="0" y="0" style="letter-spacing:0em;">B</tspan>        <tspan x="13.1" y="0" style="letter-spacing:0em;">ot</tspan>        <tspan x="34.22" y="0" style="letter-spacing:0em;">t</tspan>        <tspan x="42.02" y="0">om</tspan>    </text>    <text transform="translate(27 96.9)"          style="fill:#000; font-family:MyriadPro-Regular, &apos;Myriad Pro&apos;; font-size:24px;">        <tspan x="0" y="0" style="letter-spacing:-.07em;">T</tspan>        <tspan x="10.22" y="0" style="letter-spacing:0em;">op</tspan>    </text>    <g id="rack-6">        <g id="seperators-6">            <path id="F1-6" d="M93.66,538.33h116.74"                  style="fill:none; stroke:#000; stroke-miterlimit:13.33; stroke-width:1.33px;"/>            <path id="F2-6" d="M210.32,538.33h113.52"                  style="fill:none; stroke:#000; stroke-miterlimit:13.33; stroke-width:1.33px;"/>            <path id="T1-6" d="M209.99,537.8v-113.25"                  style="fill:none; stroke:#000; stroke-miterlimit:13.33; stroke-width:1.33px;"/>            <path id="B1-6" d="M209.99,655.32v-117.52"                  style="fill:none; stroke:#000; stroke-miterlimit:13.33; stroke-width:1.33px;"/>        </g>        <g id="cage-2-6">            <path id="YCage-2-6" d="M93.75,655.21v-117.52"                  style="fill:none; stroke:#000; stroke-miterlimit:13.33; stroke-width:1.33px;"/>            <g id="name-2-6">                <text id="text-2-6" transform="translate(137.97 604.4) scale(.93 1)"                      style="fill:#000; font-family:MyriadPro-Regular, &apos;Myriad Pro&apos;; font-size:25.68px;">                    <tspan x="0" y="0">22</tspan>                </text>            </g>            <rect id="rect-2-6" x="93.33" y="539.13" width="115.67" height="115.67"                  style="fill:none; stroke-width:0px;"/>            <path id="XCage-2-6" d="M93.25,655.86h117.56"                  style="fill:none; stroke:#000; stroke-miterlimit:13.33; stroke-width:1.33px;"/>        </g>        <g id="cage-1-6">            <path id="YCage-1-6" d="M324.26,655.32v-117.52"                  style="fill:none; stroke:#000; stroke-miterlimit:13.33; stroke-width:1.33px;"/>            <path id="XCage-1-6" d="M210.32,655.86h114.35"                  style="fill:none; stroke:#000; stroke-miterlimit:13.33; stroke-width:1.33px;"/>            <g id="name-1-6">                <text id="text-1-6" transform="translate(254.32 604.4) scale(.93 1)"                      style="fill:#000; font-family:MyriadPro-Regular, &apos;Myriad Pro&apos;; font-size:25.68px;">                    <tspan x="0" y="0">21</tspan>                </text>            </g>            <rect id="rect-1-6" x="208.33" y="539.13" width="115.67" height="115.67"                  style="fill:none; stroke-width:0px;"/>        </g>        <g id="cage-4-6">            <path id="YCage-4-6" d="M93.75,537.8v-113.36"                  style="fill:none; stroke:#000; stroke-miterlimit:13.33; stroke-width:1.33px;"/>            <path id="XCage-4-6" d="M94.32,425.08h115.75"                  style="fill:none; stroke:#000; stroke-miterlimit:13.33; stroke-width:1.33px;"/>            <g id="name-4-6">                <text id="text-4-6" transform="translate(138.41 487.4) scale(.93 1)"                      style="fill:#000; font-family:MyriadPro-Regular, &apos;Myriad Pro&apos;; font-size:25.68px;">                    <tspan x="0" y="0">24</tspan>                </text>            </g>            <rect id="rect-4-6" x="93.33" y="423.9" width="115.67" height="115.67"                  style="fill:none; stroke-width:0px;"/>        </g>        <g id="cage-3-6">            <path id="YCage-3-6" d="M324.26,537.8v-113.25"                  style="fill:none; stroke:#000; stroke-miterlimit:13.33; stroke-width:1.33px;"/>            <path id="XCage-3-6" d="M208.67,425.08h116"                  style="fill:none; stroke:#000; stroke-miterlimit:13.33; stroke-width:1.33px;"/>            <g id="name-3-6">                <text id="text-3-6" transform="translate(254.32 487.4) scale(.93 1)"                      style="fill:#000; font-family:MyriadPro-Regular, &apos;Myriad Pro&apos;; font-size:25.68px;">                    <tspan x="0" y="0">23</tspan>                </text>            </g>            <rect id="rect-3-6" x="208.33" y="423.9" width="115.67" height="115.67"                  style="fill:none; stroke-width:0px;"/>        </g>        <g id="modifications-6">            <g id="CTunnel-1-6">                <line id="cLine-1-6" x1="266.17" y1="504.23" x2="266.17" y2="574.47"                      style="fill:none; stroke-width:0px;"/>                <circle id="circle-3-6" cx="266.17" cy="481.73" r="22.5" style="fill:none; stroke-width:0px;"/>                <circle id="circle-1-6" cx="266.17" cy="596.97" r="22.5" style="fill:none; stroke-width:0px;"/>            </g>            <g id="CTunnel-2-6">                <circle id="circle-2-6" cx="151.17" cy="596.97" r="22.5" style="fill:none; stroke-width:0px;"/>                <path id="circle-4-6"                      d="M173.67,481.73c0,12.43-10.07,22.5-22.5,22.5-12.43,0-22.5-10.07-22.5-22.5,0-12.43,10.07-22.5,22.5-22.5,12.43,0,22.5,10.07,22.5,22.5Z"                      style="fill:none; fill-rule:evenodd; stroke-width:0px;"/>                <line id="cLine-2-6" x1="151.17" y1="504.23" x2="151.17" y2="574.47"                      style="fill:none; stroke-width:0px;"/>            </g>        </g>        <g id="edit-6">            <rect id="blur-6" x="93.87" y="425.14" width="230.25" height="229.72"                  style="fill:none; opacity:.9; stroke-width:0px;"/>            <path id="add-rack-6"                  d="M210.4,518.39c11.03,0,20,8.97,20,20s-8.97,20-20,20-20-8.97-20-20,8.97-20,20-20ZM210.4,514.39c-13.25,0-24,10.75-24,24s10.75,24,24,24,24-10.75,24-24-10.75-24-24-24ZM222.4,540.39h-10v10h-4v-10h-10v-4h10v-10h4v10h10v4Z"                  style="fill:none; stroke-width:0px;"/>            <path id="del-rack-6"                  d="M210.81,518.39c11.03,0,20,8.97,20,20s-8.97,20-20,20-20-8.97-20-20,8.97-20,20-20ZM210.81,514.39c-13.25,0-24,10.75-24,24s10.75,24,24,24,24-10.75,24-24-10.75-24-24-24ZM222.81,540.39h-24v-4h24v4Z"                  style="fill:none; stroke-width:0px;"/>        </g>    </g>    <g id="rack-5">        <g id="seperators-5">            <path id="F1-5" d="M396.41,537.38h116.74"                  style="fill:none; stroke:#000; stroke-miterlimit:13.33; stroke-width:1.33px;"/>            <path id="F2-5" d="M513.07,537.38h113.52"                  style="fill:none; stroke:#000; stroke-miterlimit:13.33; stroke-width:1.33px;"/>            <path id="T1-5" d="M512.74,536.84v-113.25"                  style="fill:none; stroke:#000; stroke-miterlimit:13.33; stroke-width:1.33px;"/>            <path id="B1-5" d="M512.74,654.37v-117.52"                  style="fill:none; stroke:#000; stroke-miterlimit:13.33; stroke-width:1.33px;"/>        </g>        <g id="cage-2-5">            <path id="YCage-2-5" d="M396.49,654.26v-117.52"                  style="fill:none; stroke:#000; stroke-miterlimit:13.33; stroke-width:1.33px;"/>            <g id="name-2-5">                <text id="text-2-5" transform="translate(440.48 603.44) scale(.93 1)"                      style="fill:#000; font-family:MyriadPro-Regular, &apos;Myriad Pro&apos;; font-size:25.68px;">                    <tspan x="0" y="0">18</tspan>                </text>            </g>            <rect id="rect-2-5" x="396.08" y="538.18" width="115.67" height="115.67"                  style="fill:none; stroke-width:0px;"/>            <path id="XCage-2-5" d="M396,654.9h117.56"                  style="fill:none; stroke:#000; stroke-miterlimit:13.33; stroke-width:1.33px;"/>        </g>        <g id="cage-1-5">            <path id="YCage-1-5" d="M627,654.37v-117.52"                  style="fill:none; stroke:#000; stroke-miterlimit:13.33; stroke-width:1.33px;"/>            <path id="XCage-1-5" d="M513.07,654.9h114.35"                  style="fill:none; stroke:#000; stroke-miterlimit:13.33; stroke-width:1.33px;"/>            <g id="name-1-5">                <text id="text-1-5" transform="translate(556.56 603.44) scale(.93 1)"                      style="fill:#000; font-family:MyriadPro-Regular, &apos;Myriad Pro&apos;; font-size:25.68px;">                    <tspan x="0" y="0">17</tspan>                </text>            </g>            <rect id="rect-1-5" x="511.08" y="538.18" width="115.67" height="115.67"                  style="fill:none; stroke-width:0px;"/>        </g>        <g id="cage-4-5">            <path id="YCage-4-5" d="M396.49,536.84v-113.36"                  style="fill:none; stroke:#000; stroke-miterlimit:13.33; stroke-width:1.33px;"/>            <path id="XCage-4-5" d="M397.07,424.13h115.75"                  style="fill:none; stroke:#000; stroke-miterlimit:13.33; stroke-width:1.33px;"/>            <g id="name-4-5">                <text id="text-4-5" transform="translate(440.48 487.4) scale(.93 1)"                      style="fill:#000; font-family:MyriadPro-Regular, &apos;Myriad Pro&apos;; font-size:25.68px;">                    <tspan x="0" y="0">20</tspan>                </text>            </g>            <rect id="rect-4-5" x="396.08" y="422.94" width="115.67" height="115.67"                  style="fill:none; stroke-width:0px;"/>        </g>        <g id="cage-3-5">            <path id="YCage-3-5" d="M627,536.84v-113.25"                  style="fill:none; stroke:#000; stroke-miterlimit:13.33; stroke-width:1.33px;"/>            <path id="XCage-3-5" d="M511.42,424.13h116"                  style="fill:none; stroke:#000; stroke-miterlimit:13.33; stroke-width:1.33px;"/>            <g id="name-3-5">                <text id="text-3-5" transform="translate(556.34 487.4) scale(.93 1)"                      style="fill:#000; font-family:MyriadPro-Regular, &apos;Myriad Pro&apos;; font-size:25.68px;">                    <tspan x="0" y="0">19</tspan>                </text>            </g>            <rect id="rect-3-5" x="511.08" y="422.94" width="115.67" height="115.67"                  style="fill:none; stroke-width:0px;"/>        </g>        <g id="modifications-5">            <g id="CTunnel-1-5">                <line id="cLine-1-5" x1="568.91" y1="503.28" x2="568.91" y2="573.51"                      style="fill:none; stroke-width:0px;"/>                <circle id="circle-3-5" cx="568.91" cy="480.78" r="22.5" style="fill:none; stroke-width:0px;"/>                <circle id="circle-1-5" cx="568.91" cy="596.01" r="22.5" style="fill:none; stroke-width:0px;"/>            </g>            <g id="CTunnel-2-5">                <line id="cLine-2-5" x1="453.91" y1="503.28" x2="453.91" y2="573.51"                      style="fill:none; stroke-width:0px;"/>                <path id="circle-4-5"                      d="M476.41,480.78c0,12.43-10.07,22.5-22.5,22.5-12.43,0-22.5-10.07-22.5-22.5,0-12.43,10.07-22.5,22.5-22.5,12.43,0,22.5,10.07,22.5,22.5Z"                      style="fill:none; fill-rule:evenodd; stroke-width:0px;"/>                <circle id="circle-2-5" cx="453.91" cy="596.01" r="22.5" style="fill:none; stroke-width:0px;"/>            </g>        </g>        <g id="edit-5">            <rect id="blur-5" x="396.87" y="424.14" width="230.25" height="229.72"                  style="fill:none; opacity:.9; stroke-width:0px;"/>            <path id="add-rack-5"                  d="M513.4,517.39c11.03,0,20,8.97,20,20s-8.97,20-20,20-20-8.97-20-20,8.97-20,20-20ZM513.4,513.39c-13.25,0-24,10.75-24,24s10.75,24,24,24,24-10.75,24-24-10.75-24-24-24ZM525.4,539.39h-10v10h-4v-10h-10v-4h10v-10h4v10h10v4Z"                  style="fill:none; stroke-width:0px;"/>            <path id="del-rack-5"                  d="M513.81,517.39c11.03,0,20,8.97,20,20s-8.97,20-20,20-20-8.97-20-20,8.97-20,20-20ZM513.81,513.39c-13.25,0-24,10.75-24,24s10.75,24,24,24,24-10.75,24-24-10.75-24-24-24ZM525.81,539.39h-24v-4h24v4Z"                  style="fill:none; stroke-width:0px;"/>        </g>    </g>    <g id="rack-4">        <g id="seperators-4">            <path id="F1-4" d="M711.41,538.33h116.74"                  style="fill:none; stroke:#000; stroke-miterlimit:13.33; stroke-width:1.33px;"/>            <path id="F2-4" d="M828.07,538.33h113.52"                  style="fill:none; stroke:#000; stroke-miterlimit:13.33; stroke-width:1.33px;"/>            <path id="T1-4" d="M827.74,537.8v-113.25"                  style="fill:none; stroke:#000; stroke-miterlimit:13.33; stroke-width:1.33px;"/>            <path id="B1-4" d="M827.74,655.32v-117.52"                  style="fill:none; stroke:#000; stroke-miterlimit:13.33; stroke-width:1.33px;"/>        </g>        <g id="cage-2-4">            <path id="YCage-2-4" d="M711.49,655.21v-117.52"                  style="fill:none; stroke:#000; stroke-miterlimit:13.33; stroke-width:1.33px;"/>            <g id="name-2-4">                <text id="text-2-4" transform="translate(755.48 604.4) scale(.93 1)"                      style="fill:#000; font-family:MyriadPro-Regular, &apos;Myriad Pro&apos;; font-size:25.68px;">                    <tspan x="0" y="0">14</tspan>                </text>            </g>            <rect id="rect-2-4" x="711.08" y="539.13" width="115.67" height="115.67"                  style="fill:none; stroke-width:0px;"/>            <path id="XCage-2-4" d="M711,655.86h117.56"                  style="fill:none; stroke:#000; stroke-miterlimit:13.33; stroke-width:1.33px;"/>        </g>        <g id="cage-1-4">            <path id="YCage-1-4" d="M942,655.32v-117.52"                  style="fill:none; stroke:#000; stroke-miterlimit:13.33; stroke-width:1.33px;"/>            <path id="XCage-1-4" d="M828.07,655.86h114.35"                  style="fill:none; stroke:#000; stroke-miterlimit:13.33; stroke-width:1.33px;"/>            <g id="name-1-4">                <text id="text-1-4" transform="translate(871.56 604.4) scale(.93 1)"                      style="fill:#000; font-family:MyriadPro-Regular, &apos;Myriad Pro&apos;; font-size:25.68px;">                    <tspan x="0" y="0">13</tspan>                </text>            </g>            <rect id="rect-1-4" x="826.08" y="539.13" width="115.67" height="115.67"                  style="fill:none; stroke-width:0px;"/>        </g>        <g id="cage-4-4">            <path id="YCage-4-4" d="M711.49,537.8v-113.36"                  style="fill:none; stroke:#000; stroke-miterlimit:13.33; stroke-width:1.33px;"/>            <path id="XCage-4-4" d="M712.07,425.08h115.75"                  style="fill:none; stroke:#000; stroke-miterlimit:13.33; stroke-width:1.33px;"/>            <g id="name-4-4">                <text id="text-4-4" transform="translate(755.48 487.4) scale(.93 1)"                      style="fill:#000; font-family:MyriadPro-Regular, &apos;Myriad Pro&apos;; font-size:25.68px;">                    <tspan x="0" y="0">16</tspan>                </text>            </g>            <rect id="rect-4-4" x="711.08" y="423.9" width="115.67" height="115.67"                  style="fill:none; stroke-width:0px;"/>        </g>        <g id="cage-3-4">            <path id="YCage-3-4" d="M942,537.8v-113.25"                  style="fill:none; stroke:#000; stroke-miterlimit:13.33; stroke-width:1.33px;"/>            <path id="XCage-3-4" d="M826.42,425.08h116"                  style="fill:none; stroke:#000; stroke-miterlimit:13.33; stroke-width:1.33px;"/>            <g id="name-3-4">                <text id="text-3-4" transform="translate(871.56 487.4) scale(.93 1)"                      style="fill:#000; font-family:MyriadPro-Regular, &apos;Myriad Pro&apos;; font-size:25.68px;">                    <tspan x="0" y="0">15</tspan>                </text>            </g>            <rect id="rect-3-4" x="826.08" y="423.9" width="115.67" height="115.67"                  style="fill:none; stroke-width:0px;"/>        </g>        <g id="modifications-4">            <g id="CTunnel-1-4">                <line id="cLine-1-4" x1="883.91" y1="504.23" x2="883.91" y2="574.47"                      style="fill:none; stroke-width:0px;"/>                <circle id="circle-3-4" cx="883.91" cy="481.73" r="22.5" style="fill:none; stroke-width:0px;"/>                <circle id="circle-1-4" cx="883.91" cy="596.97" r="22.5" style="fill:none; stroke-width:0px;"/>            </g>            <g id="CTunnel-2-4">                <line id="cLine-2-4" x1="768.91" y1="504.23" x2="768.91" y2="574.47"                      style="fill:none; stroke-width:0px;"/>                <path id="circle-4-4"                      d="M791.41,481.73c0,12.43-10.07,22.5-22.5,22.5-12.43,0-22.5-10.07-22.5-22.5,0-12.43,10.07-22.5,22.5-22.5s22.5,10.07,22.5,22.5Z"                      style="fill:none; fill-rule:evenodd; stroke-width:0px;"/>                <circle id="circle-2-4" cx="768.91" cy="596.97" r="22.5" style="fill:none; stroke-width:0px;"/>            </g>        </g>        <g id="edit-4">            <rect id="blur-4" x="711.37" y="425.14" width="230.25" height="229.72"                  style="fill:none; opacity:.9; stroke-width:0px;"/>            <path id="add-rack-4"                  d="M827.9,518.39c11.03,0,20,8.97,20,20s-8.97,20-20,20-20-8.97-20-20,8.97-20,20-20ZM827.9,514.39c-13.25,0-24,10.75-24,24s10.75,24,24,24,24-10.75,24-24-10.75-24-24-24ZM839.9,540.39h-10v10h-4v-10h-10v-4h10v-10h4v10h10v4Z"                  style="fill:none; stroke-width:0px;"/>            <path id="del-rack-4"                  d="M828.31,518.39c11.03,0,20,8.97,20,20s-8.97,20-20,20-20-8.97-20-20,8.97-20,20-20ZM828.31,514.39c-13.25,0-24,10.75-24,24s10.75,24,24,24,24-10.75,24-24-10.75-24-24-24ZM840.31,540.39h-24v-4h24v4Z"                  style="fill:none; stroke-width:0px;"/>        </g>    </g>    <g id="rack-3">        <g id="seperators-3">            <path id="F1-3" d="M711.41,148.33h116.74"                  style="fill:none; stroke:#000; stroke-miterlimit:13.33; stroke-width:1.33px;"/>            <path id="F2-3" d="M828.07,148.33h113.52"                  style="fill:none; stroke:#000; stroke-miterlimit:13.33; stroke-width:1.33px;"/>            <path id="T1-3" d="M827.74,147.8V34.55"                  style="fill:none; stroke:#000; stroke-miterlimit:13.33; stroke-width:1.33px;"/>            <path id="B1-3" d="M827.74,265.32v-117.52"                  style="fill:none; stroke:#000; stroke-miterlimit:13.33; stroke-width:1.33px;"/>        </g>        <g id="cage-3-3">            <path id="YCage-3-3" d="M711.49,265.21v-117.52"                  style="fill:none; stroke:#000; stroke-miterlimit:13.33; stroke-width:1.33px;"/>            <g id="name-3-3">                <text id="text-3-3" transform="translate(755.48 214.96) scale(.93 1)"                      style="fill:#000; font-family:MyriadPro-Regular, &apos;Myriad Pro&apos;; font-size:25.68px;">                    <tspan x="0" y="0">11</tspan>                </text>            </g>            <rect id="rect-3-3" x="711.08" y="149.13" width="115.67" height="115.67"                  style="fill:none; stroke-width:0px;"/>            <path id="XCage-3-3" d="M711,265.86h117.56"                  style="fill:none; stroke:#000; stroke-miterlimit:13.33; stroke-width:1.33px;"/>        </g>        <g id="cage-4-3">            <path id="YCage-4-3" d="M942,265.32v-117.52"                  style="fill:none; stroke:#000; stroke-miterlimit:13.33; stroke-width:1.33px;"/>            <path id="XCage-4-3" d="M828.07,265.86h114.35"                  style="fill:none; stroke:#000; stroke-miterlimit:13.33; stroke-width:1.33px;"/>            <g id="name-4-3">                <text id="text-4-3" transform="translate(871.56 214.96) scale(.93 1)"                      style="fill:#000; font-family:MyriadPro-Regular, &apos;Myriad Pro&apos;; font-size:25.68px;">                    <tspan x="0" y="0">12</tspan>                </text>            </g>            <rect id="rect-4-3" x="826.08" y="149.13" width="115.67" height="115.67"                  style="fill:none; stroke-width:0px;"/>        </g>        <g id="cage-1-3">            <path id="YCage-1-3" d="M711.49,147.8V34.44"                  style="fill:none; stroke:#000; stroke-miterlimit:13.33; stroke-width:1.33px;"/>            <path id="XCage-1-3" d="M712.07,35.08h115.75"                  style="fill:none; stroke:#000; stroke-miterlimit:13.33; stroke-width:1.33px;"/>            <g id="name-1-3">                <text id="text-1-3" transform="translate(762.76 99.73) scale(.93 1)"                      style="fill:#000; font-family:MyriadPro-Regular, &apos;Myriad Pro&apos;; font-size:25.68px;">                    <tspan x="0" y="0">9</tspan>                </text>            </g>            <rect id="rect-1-3" x="711.08" y="33.9" width="115.67" height="115.67"                  style="fill:none; stroke-width:0px;"/>        </g>        <g id="cage-2-3">            <path id="YCage-2-3" d="M942,147.8V34.55"                  style="fill:none; stroke:#000; stroke-miterlimit:13.33; stroke-width:1.33px;"/>            <path id="XCage-2-3" d="M826.42,35.08h116"                  style="fill:none; stroke:#000; stroke-miterlimit:13.33; stroke-width:1.33px;"/>            <g id="name-2-3">                <text id="text-2-3" transform="translate(871.56 100.4) scale(.93 1)"                      style="fill:#000; font-family:MyriadPro-Regular, &apos;Myriad Pro&apos;; font-size:25.68px;">                    <tspan x="0" y="0">10</tspan>                </text>            </g>            <rect id="rect-2-3" x="826.08" y="33.9" width="115.67" height="115.67"                  style="fill:none; stroke-width:0px;"/>        </g>        <g id="modifications-3">            <g id="CTunnel-1-3">                <line id="cLine-1-3" x1="768.91" y1="114.23" x2="768.91" y2="184.47"                      style="fill:none; stroke-width:0px;"/>                <path id="circle-1-3"                      d="M791.41,91.73c0,12.43-10.07,22.5-22.5,22.5-12.43,0-22.5-10.07-22.5-22.5,0-12.43,10.07-22.5,22.5-22.5,12.43,0,22.5,10.07,22.5,22.5Z"                      style="fill:none; fill-rule:evenodd; stroke-width:0px;"/>                <circle id="circle-3-3" cx="768.91" cy="206.97" r="22.5" style="fill:none; stroke-width:0px;"/>            </g>            <g id="CTunnel-2-3">                <line id="cLine-2-3" x1="883.91" y1="114.23" x2="883.91" y2="184.47"                      style="fill:none; stroke-width:0px;"/>                <circle id="circle-2-3" cx="883.91" cy="91.73" r="22.5" style="fill:none; stroke-width:0px;"/>                <circle id="circle-4-3" cx="883.91" cy="206.97" r="22.5" style="fill:none; stroke-width:0px;"/>            </g>        </g>        <g id="edit-3">            <rect id="blur-3" x="711.37" y="35.14" width="230.25" height="229.72"                  style="fill:none; opacity:.9; stroke-width:0px;"/>            <path id="add-rack-3"                  d="M827.9,128.39c11.03,0,20,8.97,20,20s-8.97,20-20,20-20-8.97-20-20,8.97-20,20-20ZM827.9,124.39c-13.25,0-24,10.75-24,24s10.75,24,24,24,24-10.75,24-24-10.75-24-24-24ZM839.9,150.39h-10v10h-4v-10h-10v-4h10v-10h4v10h10v4Z"                  style="fill:none; stroke-width:0px;"/>            <path id="del-rack-3"                  d="M828.31,128.39c11.03,0,20,8.97,20,20s-8.97,20-20,20-20-8.97-20-20,8.97-20,20-20ZM828.31,124.39c-13.25,0-24,10.75-24,24s10.75,24,24,24,24-10.75,24-24-10.75-24-24-24ZM840.31,150.39h-24v-4h24v4Z"                  style="fill:none; stroke-width:0px;"/>        </g>    </g>    <g id="rack-2">        <g id="seperators-2">            <path id="F1-2" d="M396.41,148.33h116.74"                  style="fill:none; stroke:#000; stroke-miterlimit:13.33; stroke-width:1.33px;"/>            <path id="F2-2" d="M513.07,148.33h113.52"                  style="fill:none; stroke:#000; stroke-miterlimit:13.33; stroke-width:1.33px;"/>            <path id="T1-2" d="M512.74,147.8V34.55"                  style="fill:none; stroke:#000; stroke-miterlimit:13.33; stroke-width:1.33px;"/>            <path id="B1-2" d="M512.74,265.32v-117.52"                  style="fill:none; stroke:#000; stroke-miterlimit:13.33; stroke-width:1.33px;"/>        </g>        <g id="cage-3-2">            <path id="YCage-3-2" d="M396.49,265.21v-117.52"                  style="fill:none; stroke:#000; stroke-miterlimit:13.33; stroke-width:1.33px;"/>            <g id="name-3-2">                <text id="text-3-2" transform="translate(447.76 214.96) scale(.93 1)"                      style="fill:#000; font-family:MyriadPro-Regular, &apos;Myriad Pro&apos;; font-size:25.68px;">                    <tspan x="0" y="0">7</tspan>                </text>            </g>            <rect id="rect-3-2" x="396.08" y="149.13" width="115.67" height="115.67"                  style="fill:none; stroke-width:0px;"/>            <path id="XCage-3-2" d="M396,265.86h117.56"                  style="fill:none; stroke:#000; stroke-miterlimit:13.33; stroke-width:1.33px;"/>        </g>        <g id="cage-4-2">            <path id="YCage-4-2" d="M627,265.32v-117.52"                  style="fill:none; stroke:#000; stroke-miterlimit:13.33; stroke-width:1.33px;"/>            <path id="XCage-4-2" d="M513.07,265.86h114.35"                  style="fill:none; stroke:#000; stroke-miterlimit:13.33; stroke-width:1.33px;"/>            <g id="name-4-2">                <text id="text-4-2" transform="translate(562.76 214.96) scale(.93 1)"                      style="fill:#000; font-family:MyriadPro-Regular, &apos;Myriad Pro&apos;; font-size:25.68px;">                    <tspan x="0" y="0">8</tspan>                </text>            </g>            <rect id="rect-4-2" x="511.08" y="149.13" width="115.67" height="115.67"                  style="fill:none; stroke-width:0px;"/>        </g>        <g id="cage-1-2">            <path id="YCage-1-2" d="M396.49,147.8V34.44"                  style="fill:none; stroke:#000; stroke-miterlimit:13.33; stroke-width:1.33px;"/>            <path id="XCage-1-2" d="M397.07,35.08h115.75"                  style="fill:none; stroke:#000; stroke-miterlimit:13.33; stroke-width:1.33px;"/>            <g id="name-1-2">                <text id="text-1-2" transform="translate(447.76 99.73) scale(.93 1)"                      style="fill:#000; font-family:MyriadPro-Regular, &apos;Myriad Pro&apos;; font-size:25.68px;">                    <tspan x="0" y="0">5</tspan>                </text>            </g>            <rect id="rect-1-2" x="396.08" y="33.9" width="115.67" height="115.67"                  style="fill:none; stroke-width:0px;"/>        </g>        <g id="cage-2-2">            <path id="YCage-2-2" d="M627,147.8V34.55"                  style="fill:none; stroke:#000; stroke-miterlimit:13.33; stroke-width:1.33px;"/>            <path id="XCage-2-2" d="M511.42,35.08h116"                  style="fill:none; stroke:#000; stroke-miterlimit:13.33; stroke-width:1.33px;"/>            <g id="name-2-2">                <text id="text-2-2" transform="translate(562.76 99.73) scale(.93 1)"                      style="fill:#000; font-family:MyriadPro-Regular, &apos;Myriad Pro&apos;; font-size:25.68px;">                    <tspan x="0" y="0">6</tspan>                </text>            </g>            <rect id="rect-2-2" x="511.08" y="33.9" width="115.67" height="115.67"                  style="fill:none; stroke-width:0px;"/>        </g>        <g id="modifications-2">            <g id="CTunnel-1-2">                <line id="cLine-1-2" x1="453.91" y1="114.23" x2="453.91" y2="184.47"                      style="fill:none; stroke-width:0px;"/>                <path id="circle-1-2"                      d="M476.41,91.73c0,12.43-10.07,22.5-22.5,22.5-12.43,0-22.5-10.07-22.5-22.5,0-12.43,10.07-22.5,22.5-22.5,12.43,0,22.5,10.07,22.5,22.5Z"                      style="fill:none; fill-rule:evenodd; stroke-width:0px;"/>                <circle id="circle-3-2" cx="453.91" cy="206.97" r="22.5" style="fill:none; stroke-width:0px;"/>            </g>            <g id="CTunnel-2-2">                <line id="cLine-2-2" x1="568.91" y1="114.23" x2="568.91" y2="184.47"                      style="fill:none; stroke-width:0px;"/>                <circle id="circle-2-2" cx="568.91" cy="91.73" r="22.5" style="fill:none; stroke-width:0px;"/>                <circle id="circle-4-2" cx="568.91" cy="206.97" r="22.5" style="fill:none; stroke-width:0px;"/>            </g>        </g>        <g id="edit-2">            <rect id="blur-2" x="396.37" y="35.14" width="230.25" height="229.72"                  style="fill:none; opacity:.9; stroke-width:0px;"/>            <path id="add-rack-2"                  d="M512.9,128.39c11.03,0,20,8.97,20,20s-8.97,20-20,20-20-8.97-20-20,8.97-20,20-20ZM512.9,124.39c-13.25,0-24,10.75-24,24s10.75,24,24,24,24-10.75,24-24-10.75-24-24-24ZM524.9,150.39h-10v10h-4v-10h-10v-4h10v-10h4v10h10v4Z"                  style="fill:none; stroke-width:0px;"/>            <path id="del-rack-2"                  d="M513.31,128.39c11.03,0,20,8.97,20,20s-8.97,20-20,20-20-8.97-20-20,8.97-20,20-20ZM513.31,124.39c-13.25,0-24,10.75-24,24s10.75,24,24,24,24-10.75,24-24-10.75-24-24-24ZM525.31,150.39h-24v-4h24v4Z"                  style="fill:none; stroke-width:0px;"/>        </g>    </g>    <g id="rack-1">        <g id="seperators-1">            <path id="F1-1" d="M93.66,148.33h116.74"                  style="fill:none; stroke:#000; stroke-miterlimit:13.33; stroke-width:1.33px;"/>            <path id="F2-1" d="M210.32,148.33h113.52"                  style="fill:none; stroke:#000; stroke-miterlimit:13.33; stroke-width:1.33px;"/>            <path id="T1-1" d="M209.99,147.8V34.55"                  style="fill:none; stroke:#000; stroke-miterlimit:13.33; stroke-width:1.33px;"/>            <path id="B1-1" d="M209.99,265.32v-117.52"                  style="fill:none; stroke:#000; stroke-miterlimit:13.33; stroke-width:1.33px;"/>        </g>        <g id="modifications-1">            <g id="CTunnel-2-1">                <line id="cLine-2-1" x1="266.17" y1="114.23" x2="266.17" y2="184.47"                      style="fill:none; stroke-width:0px;"/>                <circle id="circle-4-1" cx="266.17" cy="206.97" r="22.5" style="fill:none; stroke-width:0px;"/>                <circle id="circle-2-1" cx="266.17" cy="91.73" r="22.5" style="fill:none; stroke-width:0px;"/>            </g>            <g id="CTunnel-1-1">                <line id="cLine-1-1" x1="151.17" y1="114.23" x2="151.17" y2="184.47"                      style="fill:none; stroke-width:0px;"/>                <circle id="circle-3-1" cx="151.17" cy="206.97" r="22.5" style="fill:none; stroke-width:0px;"/>                <circle id="circle-1-1" cx="151.17" cy="91.73" r="22.5" style="fill:none; stroke-width:0px;"/>            </g>            <rect id="playCage-4" x="210.49" y="231.9" width="41.51" height="33.11"                  style="fill:none; stroke-width:0px;"/>            <rect id="playCage-3" x="94.58" y="231.9" width="40.42" height="33.02"                  style="fill:none; stroke-width:0px;"/>            <rect id="playCage-2" x="210.49" y="114.9" width="41.51" height="33.02"                  style="fill:none; stroke-width:0px;"/>            <rect id="playCage-1" x="94.58" y="114.9" width="40.42" height="33.02"                  style="fill:none; stroke-width:0px;"/>            <rect id="extension-4" x="210.49" y="231.9" width="41.51" height="33.11"                  style="fill:none; stroke-width:0px;"/>            <rect id="extension-3" x="94.58" y="231.9" width="40.42" height="33.11"                  style="fill:none; stroke-width:0px;"/>            <rect id="extension-2" x="210.49" y="114.9" width="41.51" height="33.02"                  style="fill:none; stroke-width:0px;"/>            <rect id="extension-1" x="94.58" y="114.9" width="40.42" height="33.02"                  style="fill:none; stroke-width:0px;"/>        </g>        <g id="cage-3-1">            <path id="YCage-3-1" d="M93.75,265.21v-117.52"                  style="fill:none; stroke:#000; stroke-miterlimit:13.33; stroke-width:1.33px;"/>            <g id="name-3-1">                <text id="text-3-1" transform="translate(145.01 214.96) scale(.93 1)"                      style="fill:#000; font-family:MyriadPro-Regular, &apos;Myriad Pro&apos;; font-size:25.68px;">                    <tspan x="0" y="0">3</tspan>                </text>            </g>            <rect id="rect-3-1" x="93.33" y="149.13" width="115.67" height="115.67"                  style="fill:none; stroke-width:0px;"/>            <path id="XCage-3-1" d="M93.25,265.86h117.56"                  style="fill:none; stroke:#000; stroke-miterlimit:13.33; stroke-width:1.33px;"/>        </g>        <g id="cage-4-1">            <path id="YCage-4-1" d="M324.26,265.32v-117.52"                  style="fill:none; stroke:#000; stroke-miterlimit:13.33; stroke-width:1.33px;"/>            <path id="XCage-4-1" d="M210.32,265.86h114.35"                  style="fill:none; stroke:#000; stroke-miterlimit:13.33; stroke-width:1.33px;"/>            <g id="name-4-1">                <text id="text-4-1" transform="translate(260.01 214.96) scale(.93 1)"                      style="fill:#000; font-family:MyriadPro-Regular, &apos;Myriad Pro&apos;; font-size:25.68px;">                    <tspan x="0" y="0">4</tspan>                </text>            </g>            <rect id="rect-4-1" x="208.33" y="149.13" width="115.67" height="115.67"                  style="fill:none; stroke-width:0px;"/>        </g>        <g id="cage-1-1">            <path id="YCage-1-1" d="M93.75,147.8V34.44"                  style="fill:none; stroke:#000; stroke-miterlimit:13.33; stroke-width:1.33px;"/>            <path id="XCage-1-1" d="M94.32,35.08h115.75"                  style="fill:none; stroke:#000; stroke-miterlimit:13.33; stroke-width:1.33px;"/>            <g id="name-1-1">                <text id="text-1-1" transform="translate(145.01 99.73) scale(.93 1)"                      style="fill:#000; font-family:MyriadPro-Regular, &apos;Myriad Pro&apos;; font-size:25.68px;">                    <tspan x="0" y="0">1</tspan>                </text>            </g>            <rect id="rect-1-1" x="93.33" y="33.9" width="115.67" height="115.67" style="fill:none; stroke-width:0px;"/>        </g>        <g id="cage-2-1">            <path id="YCage-2-1" d="M324.26,147.8V34.55"                  style="fill:none; stroke:#000; stroke-miterlimit:13.33; stroke-width:1.33px;"/>            <path id="XCage-2-1" d="M208.67,35.08h116"                  style="fill:none; stroke:#000; stroke-miterlimit:13.33; stroke-width:1.33px;"/>            <g id="name-2-1">                <text id="text-2-1" transform="translate(260.01 99.73) scale(.93 1)"                      style="fill:#000; font-family:MyriadPro-Regular, &apos;Myriad Pro&apos;; font-size:25.68px;">                    <tspan x="0" y="0">2</tspan>                </text>            </g>            <rect id="rect-2-1" x="208.33" y="33.9" width="115.67" height="115.67"                  style="fill:none; stroke-width:0px;"/>        </g>        <g id="edit-1">            <rect id="blur-1" x="93.75" y="35.54" width="230.25" height="229.72"                  style="fill:none; opacity:.9; stroke-width:0px;"/>            <path id="add-rack-1"                  d="M210.27,128.79c11.03,0,20,8.97,20,20s-8.97,20-20,20-20-8.97-20-20,8.97-20,20-20ZM210.27,124.79c-13.25,0-24,10.75-24,24s10.75,24,24,24,24-10.75,24-24-10.75-24-24-24ZM222.27,150.79h-10v10h-4v-10h-10v-4h10v-10h4v10h10v4Z"                  style="fill:none; stroke-width:0px;"/>            <path id="del-rack-1"                  d="M210.68,128.79c11.03,0,20,8.97,20,20s-8.97,20-20,20-20-8.97-20-20,8.97-20,20-20ZM210.68,124.79c-13.25,0-24,10.75-24,24s10.75,24,24,24,24-10.75,24-24-10.75-24-24-24ZM222.68,150.79h-24v-4h24v4Z"                  style="fill:none; stroke-width:0px;"/>        </g>    </g></svg>