<svg id="svg1" xmlns="http://www.w3.org/2000/svg" xmlns:xlink="http://www.w3.org/1999/xlink" viewBox="0 0 1213.81 701.66"><defs><style>.cls-1,.cls-2{fill:none;}.cls-2{stroke:#000;stroke-miterlimit:13.33;stroke-width:1.33px;}.cls-3{clip-path:url(#clip-path);}</style><clipPath id="clip-path"><rect class="cls-1" width="1213.81" height="701.66"/></clipPath></defs><g id="layer-MC0"><path id="path2" d="M1091.16,67.66h-751V620.22h751ZM1089.9,619H341.38V68.91H1089.9Z"/><path id="path6" class="cls-2" d="M409.77,185.33h87.44"/><path id="path30" class="cls-2" d="M339.51,281.63l83.72,83"/><g class="cls-3"><path id="path31" class="cls-2" d="M422.49,364.21c-11.6,12.32-66.57,25.56-81.09,16.2"/></g><path id="path6-2" data-name="path6" class="cls-2" d="M497.21,185.33h85.5"/><path id="path6-3" data-name="path6" class="cls-2" d="M497.21,185.33V101.59"/><path id="path6-4" data-name="path6" class="cls-2" d="M497.21,272V185.33"/><path id="path6-5" data-name="path6" class="cls-2" d="M582.71,272V185.33"/><path id="path6-6" data-name="path6" class="cls-2" d="M582.71,185.33V101.59"/><path id="path6-7" data-name="path6" class="cls-2" d="M409.77,185.33V101.59"/><path id="path6-8" data-name="path6" class="cls-2" d="M409.77,272V185.33"/><path id="path6-9" data-name="path6" class="cls-2" d="M409.13,272h88.09"/><path id="path6-10" data-name="path6" class="cls-2" d="M497.22,272h86.15"/><path id="path6-11" data-name="path6" class="cls-2" d="M409.13,101.59h88.09"/><path id="path6-12" data-name="path6" class="cls-2" d="M495.91,101.59h87.46"/><path id="path6-13" data-name="path6" class="cls-2" d="M644.13,185.33h87.44"/><path id="path6-14" data-name="path6" class="cls-2" d="M731.57,185.33h85.5"/><path id="path6-15" data-name="path6" class="cls-2" d="M731.57,185.33V101.59"/><path id="path6-16" data-name="path6" class="cls-2" d="M731.57,272V185.33"/><path id="path6-17" data-name="path6" class="cls-2" d="M817.07,272V185.33"/><path id="path6-18" data-name="path6" class="cls-2" d="M817.07,185.33V101.59"/><path id="path6-19" data-name="path6" class="cls-2" d="M644.13,185.33V101.59"/><path id="path6-20" data-name="path6" class="cls-2" d="M644.13,272V185.33"/><path id="path6-21" data-name="path6" class="cls-2" d="M643.49,272h88.09"/><path id="path6-22" data-name="path6" class="cls-2" d="M731.58,272h86.16"/><path id="path6-23" data-name="path6" class="cls-2" d="M643.49,101.59h88.09"/><path id="path6-24" data-name="path6" class="cls-2" d="M730.28,101.59h87.46"/><path id="path6-25" data-name="path6" class="cls-2" d="M866.67,185.33H954.1"/><path id="path6-26" data-name="path6" class="cls-2" d="M954.1,185.33h85.51"/><path id="path6-27" data-name="path6" class="cls-2" d="M954.1,185.33V101.59"/><path id="path6-28" data-name="path6" class="cls-2" d="M954.1,272V185.33"/><path id="path6-29" data-name="path6" class="cls-2" d="M1039.61,272V185.33"/><path id="path6-30" data-name="path6" class="cls-2" d="M1039.61,185.33V101.59"/><path id="path6-31" data-name="path6" class="cls-2" d="M866.67,185.33V101.59"/><path id="path6-32" data-name="path6" class="cls-2" d="M866.67,272V185.33"/><path id="path6-33" data-name="path6" class="cls-2" d="M866,272h88.08"/><path id="path6-34" data-name="path6" class="cls-2" d="M954.11,272h86.16"/><path id="path6-35" data-name="path6" class="cls-2" d="M866,101.59h88.08"/><path id="path6-36" data-name="path6" class="cls-2" d="M952.81,101.59h87.46"/><path id="path6-37" data-name="path6" class="cls-2" d="M867.63,488.87h87.44"/><path id="path6-38" data-name="path6" class="cls-2" d="M955.07,488.87h85.5"/><path id="path6-39" data-name="path6" class="cls-2" d="M955.07,488.87V405.13"/><path id="path6-40" data-name="path6" class="cls-2" d="M955.07,575.53V488.87"/><path id="path6-41" data-name="path6" class="cls-2" d="M1040.57,575.53V488.87"/><path id="path6-42" data-name="path6" class="cls-2" d="M1040.57,488.87V405.13"/><path id="path6-43" data-name="path6" class="cls-2" d="M867.63,488.87V405.13"/><path id="path6-44" data-name="path6" class="cls-2" d="M867.63,575.53V488.87"/><path id="path6-45" data-name="path6" class="cls-2" d="M867,575.53h88.09"/><path id="path6-46" data-name="path6" class="cls-2" d="M955.08,575.53h86.15"/><path id="path6-47" data-name="path6" class="cls-2" d="M867,405.13h88.09"/><path id="path6-48" data-name="path6" class="cls-2" d="M953.78,405.13h87.46"/><path id="path6-49" data-name="path6" class="cls-2" d="M645.09,488.87h87.44"/><path id="path6-50" data-name="path6" class="cls-2" d="M732.53,488.87H818"/><path id="path6-51" data-name="path6" class="cls-2" d="M732.53,488.87V405.13"/><path id="path6-52" data-name="path6" class="cls-2" d="M732.53,575.53V488.87"/><path id="path6-53" data-name="path6" class="cls-2" d="M818,575.53V488.87"/><path id="path6-54" data-name="path6" class="cls-2" d="M818,488.87V405.13"/><path id="path6-55" data-name="path6" class="cls-2" d="M645.09,488.87V405.13"/><path id="path6-56" data-name="path6" class="cls-2" d="M645.09,575.53V488.87"/><path id="path6-57" data-name="path6" class="cls-2" d="M644.45,575.53h88.09"/><path id="path6-58" data-name="path6" class="cls-2" d="M732.54,575.53h86.15"/><path id="path6-59" data-name="path6" class="cls-2" d="M644.45,405.13h88.09"/><path id="path6-60" data-name="path6" class="cls-2" d="M731.23,405.13h87.46"/><path id="path6-61" data-name="path6" class="cls-2" d="M410.74,488.87h87.43"/><path id="path6-62" data-name="path6" class="cls-2" d="M498.17,488.87h85.5"/><path id="path6-63" data-name="path6" class="cls-2" d="M498.17,488.87V405.13"/><path id="path6-64" data-name="path6" class="cls-2" d="M498.17,575.53V488.87"/><path id="path6-65" data-name="path6" class="cls-2" d="M583.67,575.53V488.87"/><path id="path6-66" data-name="path6" class="cls-2" d="M583.67,488.87V405.13"/><path id="path6-67" data-name="path6" class="cls-2" d="M410.74,488.87V405.13"/><path id="path6-68" data-name="path6" class="cls-2" d="M410.74,575.53V488.87"/><path id="path6-69" data-name="path6" class="cls-2" d="M410.09,575.53h88.09"/><path id="path6-70" data-name="path6" class="cls-2" d="M498.18,575.53h86.16"/><path id="path6-71" data-name="path6" class="cls-2" d="M410.09,405.13h88.09"/><path id="path6-72" data-name="path6" class="cls-2" d="M496.88,405.13h87.46"/></g></svg>