<?xml version="1.0" encoding="UTF-8"?>
<svg id="four-rack-template" xmlns="http://www.w3.org/2000/svg" width="240" height="240" viewBox="0 0 240 240">
    <g id="rack-x">
        <g id="seperators">
            <path id="F1" d="M.5,120h119.5" style="fill:none; stroke:#010101; stroke-miterlimit:13.33;"/>
            <path id="F2" d="M120,120h119.5" style="fill:none; stroke:#010101; stroke-miterlimit:13.33;"/>
            <path id="T1" d="M120,120V.5" style="fill:none; stroke:#010101; stroke-miterlimit:13.33;"/>
            <path id="B1" d="M120,239.5v-119.5" style="fill:none; stroke:#010101; stroke-miterlimit:13.33;"/>
        </g>
        <g id="modifications">
            <g id="CTunnel-2">
                <line id="cLine-2" x1="179.27" y1="86.11" x2="179.27" y2="156.06" style="fill:none; stroke-width:0px;"/>
                <circle id="circle-4" cx="179.27" cy="178.47" r="22.41" style="fill:none; stroke-width:0px;"/>
                <circle id="circle-2" cx="179.27" cy="63.7" r="22.41" style="fill:none; stroke-width:0px;"/>
            </g>
            <g id="CTunnel-1">
                <line id="cLine-1" x1="60.25" y1="86.11" x2="60.25" y2="156.06" style="fill:none; stroke-width:0px;"/>
                <circle id="circle-3" cx="60.25" cy="178.47" r="22.41" style="fill:none; stroke-width:0px;"/>
                <circle id="circle-1" cx="60.25" cy="63.7" r="22.41" style="fill:none; stroke-width:0px;"/>
            </g>
            <rect id="playCage-4" x="120" y="206.53" width="41.34" height="32.97" style="fill:none; stroke-width:0px;"/>
            <rect id="playCage-3" x=".5" y="206.53" width="40.25" height="32.88" style="fill:none; stroke-width:0px;"/>
            <rect id="playCage-2" x="120" y="87.12" width="41.34" height="32.88" style="fill:none; stroke-width:0px;"/>
            <rect id="playCage-1" x=".5" y="87.12" width="40.25" height="32.88" style="fill:none; stroke-width:0px;"/>
            <rect id="extension-4" x="120" y="206.53" width="41.34" height="32.97"
                  style="fill:none; stroke-width:0px;"/>
            <rect id="extension-3" x=".5" y="206.53" width="40.25" height="32.97" style="fill:none; stroke-width:0px;"/>
            <rect id="extension-2" x="119.51" y="86.61" width="41.34" height="32.88"
                  style="fill:none; stroke-width:0px;"/>
            <rect id="extension-1" x=".5" y="87.12" width="40.25" height="32.88" style="fill:none; stroke-width:0px;"/>
        </g>
        <g id="cage-4">
            <path id="YCage" d="M239.5,239.5v-119.5" style="fill:none; stroke:#010101; stroke-miterlimit:13.33;"/>
            <path id="XCage" d="M120,239.5h119.5" style="fill:none; stroke:#010101; stroke-miterlimit:13.33;"/>
            <text id="name" transform="translate(174.22 187.72) scale(.93 1)"
                  style="fill:#010101; font-family:MyriadPro-Regular, &apos;Myriad Pro&apos;; font-size:25.58px;">
                <tspan x="0" y="0">x</tspan>
            </text>
            <rect id="cageRect" x="120" y="120" width="119.5" height="119.5" style="fill:none; stroke-width:0px;"/>
        </g>
        <g id="cage-3">
            <path id="YCage-2" d="M.5,239.5v-119.5" style="fill:none; stroke:#010101; stroke-miterlimit:13.33;"/>
            <text id="name-2" transform="translate(54.72 187.72) scale(.93 1)"
                  style="fill:#010101; font-family:MyriadPro-Regular, &apos;Myriad Pro&apos;; font-size:25.58px;">
                <tspan x="0" y="0">x</tspan>
            </text>
            <rect id="cageRect-2" x=".5" y="120" width="119.5" height="119.5" style="fill:none; stroke-width:0px;"/>
            <path id="XCage-2" d="M.5,239.5h119.5" style="fill:none; stroke:#010101; stroke-miterlimit:13.33;"/>
        </g>
        <g id="cage-2">
            <path id="YCage-3" d="M239.5,120V.5" style="fill:none; stroke:#010101; stroke-miterlimit:13.33;"/>
            <path id="XCage-3" d="M120,.5h119.5" style="fill:none; stroke:#010101; stroke-miterlimit:13.33;"/>
            <text id="name-3" transform="translate(174.47 68.22) scale(.93 1)"
                  style="fill:#010101; font-family:MyriadPro-Regular, &apos;Myriad Pro&apos;; font-size:25.58px;">
                <tspan x="0" y="0">x</tspan>
            </text>
            <rect id="cageRect-3" x="120" y=".5" width="119.5" height="119.5" style="fill:none; stroke-width:0px;"/>
        </g>
        <g id="cage-1">
            <path id="YCage-4" d="M.5,120V.5" style="fill:none; stroke:#010101; stroke-miterlimit:13.33;"/>
            <path id="XCage-4" d="M.5.5h119.5" style="fill:none; stroke:#010101; stroke-miterlimit:13.33;"/>
            <text id="name-4" transform="translate(54.72 68.22) scale(.93 1)"
                  style="fill:#010101; font-family:MyriadPro-Regular, &apos;Myriad Pro&apos;; font-size:25.58px;">
                <tspan x="0" y="0">x</tspan>
            </text>
            <rect id="cageRect-4" x=".5" y=".5" width="119.5" height="119.5" style="fill:none; stroke-width:0px;"/>
        </g>
        <g id="edit">
            <rect id="edit-blur" x=".5" y=".5" width="239" height="239"
                  style="fill:none; opacity:.9; stroke-width:0px;"/>
            <path id="add-rack"
                  d="M120,100.08c10.98,0,19.92,8.94,19.92,19.92s-8.94,19.92-19.92,19.92-19.92-8.94-19.92-19.92,8.94-19.92,19.92-19.92ZM120,96.1c-13.2,0-23.9,10.7-23.9,23.9s10.7,23.9,23.9,23.9,23.9-10.7,23.9-23.9-10.7-23.9-23.9-23.9ZM131.95,121.99h-9.96v9.96h-3.98v-9.96h-9.96v-3.98h9.96v-9.96h3.98v9.96h9.96v3.98Z"
                  style="fill:none; stroke-width:0px;"/>
            <path id="del-rack"
                  d="M120,100.08c10.98,0,19.92,8.94,19.92,19.92s-8.94,19.92-19.92,19.92-19.92-8.94-19.92-19.92,8.94-19.92,19.92-19.92ZM120,96.1c-13.2,0-23.9,10.7-23.9,23.9s10.7,23.9,23.9,23.9,23.9-10.7,23.9-23.9-10.7-23.9-23.9-23.9ZM131.95,121.99h-23.9v-3.98h23.9v3.98Z"
                  style="fill:none; stroke-width:0px;"/>
        </g>
    </g>
</svg>