<?xml version="1.0" encoding="UTF-8"?>
<svg id="Layer_1" xmlns="http://www.w3.org/2000/svg" width="436.82" height="770.82" viewBox="0 0 436.82 770.82">
    <rect x="340.03" y="702.97" width="61.29" height="61.29" style="fill:none; stroke:#231f20; stroke-miterlimit:10;"/>
    <rect x="340.03" y="624.44" width="61.29" height="61.29" style="fill:none; stroke:#231f20; stroke-miterlimit:10;"/>
    <rect x="340.03" y="545.9" width="61.29" height="61.29" style="fill:none; stroke:#231f20; stroke-miterlimit:10;"/>
    <line x1="340.03" y1="498.01" x2="345.03" y2="498.01"
          style="fill:none; stroke:#231f20; stroke-miterlimit:10; stroke-width:2px;"/>
    <line x1="347.88" y1="498.01" x2="364.98" y2="498.01"
          style="fill:none; stroke:#231f20; stroke-dasharray:0 0 0 0 5.7 5.7 2.85 5.7; stroke-miterlimit:10; stroke-width:2px;"/>
    <line x1="367.82" y1="498.01" x2="393.47" y2="498.01"
          style="fill:none; stroke:#231f20; stroke-dasharray:0 0 0 0 0 0 5.7 2.85 5.7 5.7 2.85 5.7; stroke-miterlimit:10; stroke-width:2px;"/>
    <line x1="396.32" y1="498.01" x2="401.32" y2="498.01"
          style="fill:none; stroke:#231f20; stroke-miterlimit:10; stroke-width:2px;"/>
    <rect x="340.03" y="467.37" width="61.29" height="61.29" style="fill:none; stroke:#231f20; stroke-miterlimit:10;"/>
    <line x1="340.03" y1="419.48" x2="345.03" y2="419.48" style="fill:none; stroke:#231f20; stroke-miterlimit:10;"/>
    <line x1="355.29" y1="419.48" x2="391.19" y2="419.48"
          style="fill:none; stroke:#231f20; stroke-dasharray:0 0 10.26 10.26; stroke-miterlimit:10;"/>
    <line x1="396.32" y1="419.48" x2="401.32" y2="419.48" style="fill:none; stroke:#231f20; stroke-miterlimit:10;"/>
    <rect x="340.03" y="388.84" width="61.29" height="61.29" style="fill:none; stroke:#231f20; stroke-miterlimit:10;"/>
    <line x1="340.03" y1="340.95" x2="401.32" y2="340.95" style="fill:#fff; stroke:#231f20; stroke-miterlimit:10;"/>
    <rect x="340.03" y="310.3" width="61.29" height="61.29" style="fill:none; stroke:#231f20; stroke-miterlimit:10;"/>
    <line x1="370.67" y1="293.06" x2="370.67" y2="292.56"
          style="fill:none; stroke:#231f20; stroke-miterlimit:10; stroke-width:5px;"/>
    <line x1="370.67" y1="291.54" x2="370.67" y2="287.96"
          style="fill:none; stroke:#231f20; stroke-dasharray:0 0 0 0 1.02 1.02 1.02 1.02; stroke-miterlimit:10; stroke-width:5px;"/>
    <line x1="370.67" y1="287.45" x2="370.67" y2="232.78"
          style="fill:none; stroke:#231f20; stroke-dasharray:0 0 0 0 0 0 1.02 1.02 1.02 1.02 1.02 1.02; stroke-miterlimit:10; stroke-width:5px;"/>
    <line x1="370.67" y1="232.27" x2="370.67" y2="231.77"
          style="fill:none; stroke:#231f20; stroke-miterlimit:10; stroke-width:5px;"/>
    <rect x="340.03" y="231.77" width="61.29" height="61.29" style="fill:none; stroke:#231f20; stroke-miterlimit:10;"/>
    <line x1="370.67" y1="214.53" x2="370.67" y2="212.03"
          style="fill:none; stroke:#231f20; stroke-miterlimit:10; stroke-width:5px;"/>
    <line x1="370.67" y1="207.56" x2="370.67" y2="202.2"
          style="fill:none; stroke:#231f20; stroke-dasharray:0 0 4.47 1.79; stroke-miterlimit:10; stroke-width:5px;"/>
    <line x1="370.67" y1="201.3" x2="370.67" y2="156.63"
          style="fill:none; stroke:#231f20; stroke-dasharray:0 0 0 0 4.47 4.47 4.47 1.79; stroke-miterlimit:10; stroke-width:5px;"/>
    <line x1="370.67" y1="155.74" x2="370.67" y2="153.24"
          style="fill:none; stroke:#231f20; stroke-miterlimit:10; stroke-width:5px;"/>
    <rect x="340.03" y="153.24" width="61.29" height="61.29" style="fill:none; stroke:#231f20; stroke-miterlimit:10;"/>
    <line x1="370.67" y1="140.32" x2="370.67" y2="139.32"
          style="fill:none; stroke:#231f20; stroke-miterlimit:10; stroke-width:5px;"/>
    <line x1="370.67" y1="133.62" x2="370.67" y2="122.22"
          style="fill:none; stroke:#231f20; stroke-dasharray:0 0 0 0 2.28 2.28 5.7 2.28; stroke-miterlimit:10; stroke-width:5px;"/>
    <line x1="370.67" y1="121.08" x2="370.67" y2="81.17"
          style="fill:none; stroke:#231f20; stroke-dasharray:0 0 0 0 0 0 2.28 5.7 2.28 2.28 5.7 2.28; stroke-miterlimit:10; stroke-width:5px;"/>
    <line x1="370.67" y1="80.03" x2="370.67" y2="79.03"
          style="fill:none; stroke:#231f20; stroke-miterlimit:10; stroke-width:5px;"/>
    <rect x="340.03" y="79.03" width="61.29" height="61.29" style="fill:none; stroke:#231f20; stroke-miterlimit:10;"/>
    <line x1="370.67" y1="61.79" x2="370.67" y2=".5" style="fill:#fff; stroke:#231f20; stroke-miterlimit:10;"/>
    <rect x="340.03" y=".5" width="61.29" height="61.29" style="fill:none; stroke:#231f20; stroke-miterlimit:10;"/>
    <text transform="translate(0 31.14)"
          style="fill:#231f20; font-family:MyriadPro-Regular, &apos;Myriad Pro&apos;; font-size:21px;">
        <tspan x="0" y="0" style="letter-spacing:0em;">Solid Divider</tspan>
    </text>
    <text transform="translate(.88 109.91)"
          style="fill:#231f20; font-family:MyriadPro-Regular, &apos;Myriad Pro&apos;; font-size:21px;">
        <tspan x="0" y="0" style="letter-spacing:-.02em;">Protected Contact Divider</tspan>
    </text>
    <text transform="translate(.88 183.88)"
          style="fill:#231f20; font-family:MyriadPro-Regular, &apos;Myriad Pro&apos;; font-size:21px;">
        <tspan x="0" y="0" style="letter-spacing:-.02em;">Visual Contact Divider</tspan>
    </text>
    <text transform="translate(.88 262.41)"
          style="fill:#231f20; font-family:MyriadPro-Regular, &apos;Myriad Pro&apos;; font-size:21px;">
        <tspan x="0" y="0" style="letter-spacing:-.02em;">Privacy Divider</tspan>
    </text>
    <text transform="translate(.88 340.95)"
          style="fill:#231f20; font-family:MyriadPro-Regular, &apos;Myriad Pro&apos;; font-size:21px;">
        <tspan x="0" y="0" style="letter-spacing:0em;">Standard Floor</tspan>
    </text>
    <text transform="translate(.88 419.48)"
          style="fill:#231f20; font-family:MyriadPro-Regular, &apos;Myriad Pro&apos;; font-size:21px;">
        <tspan x="0" y="0" style="letter-spacing:0em;">Mesh Floor</tspan>
    </text>
    <text transform="translate(.88 498.25)"
          style="fill:#231f20; font-family:MyriadPro-Regular, &apos;Myriad Pro&apos;; font-size:21px;">
        <tspan x="0" y="0" style="letter-spacing:0em;">Mesh Floor x2</tspan>
    </text>
    <text transform="translate(.88 576.55)"
          style="fill:#231f20; font-family:MyriadPro-Regular, &apos;Myriad Pro&apos;; font-size:21px;">
        <tspan x="0" y="0" style="letter-spacing:0em;">Play Cage</tspan>
    </text>
    <text transform="translate(.88 655.54)"
          style="fill:#231f20; font-family:MyriadPro-Regular, &apos;Myriad Pro&apos;; font-size:21px;">
        <tspan x="0" y="0">Extension</tspan>
    </text>
    <text transform="translate(.88 733.85)"
          style="fill:#231f20; font-family:MyriadPro-Regular, &apos;Myriad Pro&apos;; font-size:21px;">
        <tspan x="0" y="0">C-Tunnel</tspan>
    </text>
    <path d="M360.71,752.68c.43-4.88,4.65-9,9.81-9.08,5.28-.08,9.85,4.1,10.14,9.44.31,5.55-4.13,10.24-9.42,10.53-5.97.33-11.04-5.05-10.53-10.89Z"
          style="fill:none; stroke:#231f20; stroke-miterlimit:10;"/>
    <path d="M359.71,712.75c.43-4.89,4.65-9.01,9.81-9.08,5.28-.08,9.85,4.11,10.14,9.45.31,5.56-4.13,10.25-9.42,10.54-5.97.33-11.04-5.05-10.53-10.9Z"
          style="fill:none; stroke:#231f20; stroke-miterlimit:10;"/>
    <line x1="370.52" y1="743.6" x2="370.24" y2="723.65" style="fill:#fff; stroke:#231f20; stroke-miterlimit:10;"/>
    <rect x="340.03" y="655.08" width="30.64" height="30.64"
          style="fill:#fcb017; stroke:#231f20; stroke-miterlimit:10;"/>
    <rect x="340.03" y="576.55" width="30.64" height="30.64"
          style="fill:#6d88c4; stroke:#231f20; stroke-miterlimit:10;"/>
</svg>