<?xml version="1.0" encoding="UTF-8"?><svg id="Layer_1" xmlns="http://www.w3.org/2000/svg" width="436.82" height="770.82" viewBox="0 0 436.82 770.82"><rect x="340.03" y="702.97" width="61.29" height="61.29" style="fill:none; stroke:#231f20; stroke-miterlimit:10;"/><rect x="340.03" y="624.44" width="61.29" height="61.29" style="fill:none; stroke:#231f20; stroke-miterlimit:10;"/><rect x="340.03" y="545.9" width="61.29" height="61.29" style="fill:none; stroke:#231f20; stroke-miterlimit:10;"/><line x1="340.03" y1="498.01" x2="345.03" y2="498.01" style="fill:none; stroke:#231f20; stroke-miterlimit:10; stroke-width:2px;"/><line x1="347.88" y1="498.01" x2="364.98" y2="498.01" style="fill:none; stroke:#231f20; stroke-dasharray:0 0 0 0 5.7 5.7 2.85 5.7; stroke-miterlimit:10; stroke-width:2px;"/><line x1="367.82" y1="498.01" x2="393.47" y2="498.01" style="fill:none; stroke:#231f20; stroke-dasharray:0 0 0 0 0 0 5.7 2.85 5.7 5.7 2.85 5.7; stroke-miterlimit:10; stroke-width:2px;"/><line x1="396.32" y1="498.01" x2="401.32" y2="498.01" style="fill:none; stroke:#231f20; stroke-miterlimit:10; stroke-width:2px;"/><rect x="340.03" y="467.37" width="61.29" height="61.29" style="fill:none; stroke:#231f20; stroke-miterlimit:10;"/><line x1="340.03" y1="419.48" x2="345.03" y2="419.48" style="fill:none; stroke:#231f20; stroke-miterlimit:10;"/><line x1="355.29" y1="419.48" x2="391.19" y2="419.48" style="fill:none; stroke:#231f20; stroke-dasharray:0 0 10.26 10.26; stroke-miterlimit:10;"/><line x1="396.32" y1="419.48" x2="401.32" y2="419.48" style="fill:none; stroke:#231f20; stroke-miterlimit:10;"/><rect x="340.03" y="388.84" width="61.29" height="61.29" style="fill:none; stroke:#231f20; stroke-miterlimit:10;"/><line x1="340.03" y1="340.95" x2="401.32" y2="340.95" style="fill:#fff; stroke:#231f20; stroke-miterlimit:10;"/><rect x="340.03" y="310.3" width="61.29" height="61.29" style="fill:none; stroke:#231f20; stroke-miterlimit:10;"/><line x1="370.67" y1="293.06" x2="370.67" y2="292.56" style="fill:none; stroke:#231f20; stroke-miterlimit:10; stroke-width:4px;"/><line x1="370.67" y1="291.54" x2="370.67" y2="287.96" style="fill:none; stroke:#231f20; stroke-dasharray:0 0 0 0 1.02 1.02 1.02 1.02; stroke-miterlimit:10; stroke-width:4px;"/><line x1="370.67" y1="287.45" x2="370.67" y2="232.78" style="fill:none; stroke:#231f20; stroke-dasharray:0 0 0 0 0 0 1.02 1.02 1.02 1.02 1.02 1.02; stroke-miterlimit:10; stroke-width:4px;"/><line x1="370.67" y1="232.27" x2="370.67" y2="231.77" style="fill:none; stroke:#231f20; stroke-miterlimit:10; stroke-width:4px;"/><rect x="340.03" y="231.77" width="61.29" height="61.29" style="fill:none; stroke:#231f20; stroke-miterlimit:10;"/><line x1="370.67" y1="214.53" x2="370.67" y2="153.24" style="fill:#fff; stroke:#231f20; stroke-dasharray:0 0 0 0 0 0 5 10 5 10 5 10; stroke-miterlimit:10; stroke-width:4px;"/><rect x="340.03" y="153.24" width="61.29" height="61.29" style="fill:none; stroke:#231f20; stroke-miterlimit:10;"/><line x1="370.67" y1="140.32" x2="370.67" y2="139.32" style="fill:none; stroke:#231f20; stroke-miterlimit:10; stroke-width:4px;"/><line x1="370.67" y1="133.62" x2="370.67" y2="122.22" style="fill:none; stroke:#231f20; stroke-dasharray:0 0 0 0 2.28 2.28 5.7 2.28; stroke-miterlimit:10; stroke-width:4px;"/><line x1="370.67" y1="121.08" x2="370.67" y2="81.17" style="fill:none; stroke:#231f20; stroke-dasharray:0 0 0 0 0 0 2.28 5.7 2.28 2.28 5.7 2.28; stroke-miterlimit:10; stroke-width:4px;"/><line x1="370.67" y1="80.03" x2="370.67" y2="79.03" style="fill:none; stroke:#231f20; stroke-miterlimit:10; stroke-width:4px;"/><rect x="340.03" y="79.03" width="61.29" height="61.29" style="fill:none; stroke:#231f20; stroke-miterlimit:10;"/><line x1="370.67" y1="61.79" x2="370.67" y2=".5" style="fill:#fff; stroke:#231f20; stroke-miterlimit:10;"/><rect x="340.03" y=".5" width="61.29" height="61.29" style="fill:none; stroke:#231f20; stroke-miterlimit:10;"/><text transform="translate(0 31.14)" style="fill:#231f20; font-family:MyriadPro-Regular, &apos;Myriad Pro&apos;; font-size:21px;"><tspan x="0" y="0" style="letter-spacing:0em;">S</tspan><tspan x="10.48" y="0">olid Divider</tspan></text><text transform="translate(.88 109.91)" style="fill:#231f20; font-family:MyriadPro-Regular, &apos;Myriad Pro&apos;; font-size:21px;"><tspan x="0" y="0" style="letter-spacing:-.02em;">P</tspan><tspan x="10.84" y="0" style="letter-spacing:0em;">r</tspan><tspan x="17.49" y="0">o</tspan><tspan x="29.02" y="0" style="letter-spacing:0em;">t</tspan><tspan x="35.85" y="0" style="letter-spacing:0em;">e</tspan><tspan x="46.37" y="0" style="letter-spacing:.01em;">c</tspan><tspan x="56.05" y="0" style="letter-spacing:0em;">t</tspan><tspan x="62.87" y="0" style="letter-spacing:0em;">ed </tspan><tspan x="89.69" y="0" style="letter-spacing:-.01em;">C</tspan><tspan x="101.64" y="0">o</tspan><tspan x="113.17" y="0" style="letter-spacing:0em;">n</tspan><tspan x="124.74" y="0">ta</tspan><tspan x="141.81" y="0" style="letter-spacing:.01em;">c</tspan><tspan x="151.49" y="0">t Divider</tspan></text><text transform="translate(.88 183.88)" style="fill:#231f20; font-family:MyriadPro-Regular, &apos;Myriad Pro&apos;; font-size:21px;"><tspan x="0" y="0" style="letter-spacing:-.02em;">V</tspan><tspan x="11.38" y="0" style="letter-spacing:0em;">isual </tspan><tspan x="55.71" y="0" style="letter-spacing:-.01em;">C</tspan><tspan x="67.66" y="0" style="letter-spacing:0em;">o</tspan><tspan x="79.19" y="0" style="letter-spacing:0em;">n</tspan><tspan x="90.76" y="0">ta</tspan><tspan x="107.83" y="0" style="letter-spacing:.01em;">c</tspan><tspan x="117.51" y="0">t Divider</tspan></text><text transform="translate(.88 262.41)" style="fill:#231f20; font-family:MyriadPro-Regular, &apos;Myriad Pro&apos;; font-size:21px;"><tspan x="0" y="0" style="letter-spacing:-.02em;">P</tspan><tspan x="10.84" y="0" style="letter-spacing:0em;">r</tspan><tspan x="17.79" y="0" style="letter-spacing:0em;">i</tspan><tspan x="22.7" y="0" style="letter-spacing:0em;">v</tspan><tspan x="32.72" y="0" style="letter-spacing:0em;">a</tspan><tspan x="42.84" y="0" style="letter-spacing:.02em;">c</tspan><tspan x="52.63" y="0">y Divider</tspan></text><text transform="translate(.88 340.95)" style="fill:#231f20; font-family:MyriadPro-Regular, &apos;Myriad Pro&apos;; font-size:21px;"><tspan x="0" y="0" style="letter-spacing:0em;">S</tspan><tspan x="10.29" y="0" style="letter-spacing:0em;">tanda</tspan><tspan x="60.98" y="0" style="letter-spacing:0em;">r</tspan><tspan x="67.64" y="0">d </tspan><tspan x="83.94" y="0" style="letter-spacing:-.02em;">F</tspan><tspan x="93.81" y="0">loor</tspan></text><text transform="translate(.88 419.48)" style="fill:#231f20; font-family:MyriadPro-Regular, &apos;Myriad Pro&apos;; font-size:21px;"><tspan x="0" y="0" style="letter-spacing:0em;">M</tspan><tspan x="17.01" y="0" style="letter-spacing:0em;">esh </tspan><tspan x="51.95" y="0" style="letter-spacing:-.02em;">F</tspan><tspan x="61.82" y="0" style="letter-spacing:0em;">loor</tspan></text><text transform="translate(.88 498.25)" style="fill:#231f20; font-family:MyriadPro-Regular, &apos;Myriad Pro&apos;; font-size:21px;"><tspan x="0" y="0" style="letter-spacing:0em;">M</tspan><tspan x="17.01" y="0" style="letter-spacing:0em;">esh </tspan><tspan x="51.95" y="0" style="letter-spacing:-.02em;">F</tspan><tspan x="61.82" y="0" style="letter-spacing:0em;">loor x2</tspan></text><text transform="translate(.88 576.55)" style="fill:#231f20; font-family:MyriadPro-Regular, &apos;Myriad Pro&apos;; font-size:21px;"><tspan x="0" y="0" style="letter-spacing:0em;">P</tspan><tspan x="11.07" y="0" style="letter-spacing:0em;">l</tspan><tspan x="16.02" y="0" style="letter-spacing:0em;">a</tspan><tspan x="25.98" y="0">y </tspan><tspan x="40.32" y="0" style="letter-spacing:0em;">C</tspan><tspan x="52.35" y="0" style="letter-spacing:0em;">age</tspan></text><text transform="translate(.88 655.54)" style="fill:#231f20; font-family:MyriadPro-Regular, &apos;Myriad Pro&apos;; font-size:21px;"><tspan x="0" y="0">E</tspan><tspan x="10.33" y="0" style="letter-spacing:.01em;">x</tspan><tspan x="20.33" y="0" style="letter-spacing:0em;">t</tspan><tspan x="27.15" y="0">ension</tspan></text><text transform="translate(.88 733.85)" style="fill:#231f20; font-family:MyriadPro-Regular, &apos;Myriad Pro&apos;; font-size:21px;"><tspan x="0" y="0">C</tspan><tspan x="12.18" y="0" style="letter-spacing:-.05em;">-</tspan><tspan x="17.58" y="0" style="letter-spacing:-.04em;">T</tspan><tspan x="27.07" y="0">unnel</tspan></text><path d="M360.71,752.68c.43-4.88,4.65-9,9.81-9.08,5.28-.08,9.85,4.1,10.14,9.44.31,5.55-4.13,10.24-9.42,10.53-5.97.33-11.04-5.05-10.53-10.89Z" style="fill:none; stroke:#231f20; stroke-miterlimit:10;"/><path d="M359.71,712.75c.43-4.89,4.65-9.01,9.81-9.08,5.28-.08,9.85,4.11,10.14,9.45.31,5.56-4.13,10.25-9.42,10.54-5.97.33-11.04-5.05-10.53-10.9Z" style="fill:none; stroke:#231f20; stroke-miterlimit:10;"/><line x1="370.52" y1="743.6" x2="370.24" y2="723.65" style="fill:#fff; stroke:#231f20; stroke-miterlimit:10;"/><rect x="340.03" y="655.08" width="30.64" height="30.64" style="fill:#fcb017; stroke:#231f20; stroke-miterlimit:10;"/><rect x="340.03" y="576.55" width="30.64" height="30.64" style="fill:#6d88c4; stroke:#231f20; stroke-miterlimit:10;"/></svg>