<?xml version="1.0" encoding="UTF-8" standalone="no"?>
<svg
   id="Layer_1"
   data-name="Layer 1"
   version="1.1"
   viewBox="0 0 23.1 27.299999"
   width="19.1"
   height="23.299999"
   xmlns="http://www.w3.org/2000/svg"
   xmlns:svg="http://www.w3.org/2000/svg">
  <defs
     id="defs5" />
  <path
     d="M 21.5,1.7 H 14.9 C 14.9,0.8 14.2,0 13.2,0 H 9.9 C 9,0 8.2,0.8 8.2,1.7 H 1.7 C 0.8,1.7 0,2.5 0,3.4 v 2.1 c 0,0.2 0.2,0.4 0.4,0.4 h 22.3 c 0.2,0 0.4,-0.2 0.4,-0.4 V 3.4 c 0,-0.9 -0.7,-1.7 -1.7,-1.7 z"
     fill="#231f20"
     stroke-width="0"
     id="path1" />
  <path
     d="m 6.6,10.3 c -0.2,0 -0.4,0.2 -0.4,0.4 v 11.1 c 0,0.2 0.2,0.4 0.4,0.4 C 6.8,22.2 7,22 7,21.8 V 10.7 C 7,10.5 6.8,10.3 6.6,10.3 Z"
     fill="#231f20"
     stroke-width="0"
     id="path2" />
  <path
     d="m 11.6,10.3 c -0.2,0 -0.4,0.2 -0.4,0.4 v 11.1 c 0,0.2 0.2,0.4 0.4,0.4 0.2,0 0.4,-0.2 0.4,-0.4 V 10.7 c 0,-0.2 -0.2,-0.4 -0.4,-0.4 z"
     fill="#231f20"
     stroke-width="0"
     id="path3" />
  <path
     d="m 16.5,10.3 c -0.2,0 -0.4,0.2 -0.4,0.4 v 11.1 c 0,0.2 0.2,0.4 0.4,0.4 0.2,0 0.4,-0.2 0.4,-0.4 V 10.7 c 0,-0.2 -0.2,-0.4 -0.4,-0.4 z"
     fill="#231f20"
     stroke-width="0"
     id="path4" />
  <path
     d="M 2.1,6.8 H 1.3 v 18.8 c 0,0.9 0.7,1.7 1.7,1.7 h 17.3 c 0.9,0 1.7,-0.8 1.7,-1.7 V 6.8 Z m 5.7,15 c 0,0.7 -0.6,1.3 -1.2,1.3 C 6,23.1 5.4,22.5 5.4,21.8 V 10.7 C 5.4,10 6,9.4 6.6,9.4 c 0.6,0 1.2,0.6 1.2,1.3 z m 5,0 c 0,0.7 -0.6,1.3 -1.2,1.3 -0.6,0 -1.2,-0.6 -1.2,-1.3 V 10.7 c 0,-0.7 0.6,-1.3 1.2,-1.3 0.6,0 1.2,0.6 1.2,1.3 z m 5,0 c 0,0.7 -0.6,1.3 -1.2,1.3 -0.6,0 -1.2,-0.6 -1.2,-1.3 V 10.7 c 0,-0.7 0.6,-1.3 1.2,-1.3 0.6,0 1.2,0.6 1.2,1.3 z"
     fill="#231f20"
     stroke-width="0"
     id="path5" />
</svg>
