<?xml version="1.0" encoding="UTF-8"?><svg id="two-rack-vertical-template" xmlns="http://www.w3.org/2000/svg" width="120" height="239" viewBox="0 0 120 239"><g id="rack-x"><g id="seperators"><path id="F1" d="M1.17,119.5h117.83" style="fill:none; stroke:#010101; stroke-miterlimit:13.33;"/><path id="T1" d="M119.5,119.5V.5" style="fill:none; stroke:#010101; stroke-miterlimit:13.33;"/><path id="B1" d="M119.5,238.5v-119" style="fill:none; stroke:#010101; stroke-miterlimit:13.33;"/></g><g id="modifications"><g id="CTunnel-1"><line id="cLine-1" x1="60" y1="83.18" x2="60" y2="154.01" style="fill:none; stroke-width:0px;"/><circle id="circle-3" cx="60" cy="176.7" r="22.69" style="fill:none; stroke-width:0px;"/><circle id="circle-1" cx="60" cy="60.49" r="22.69" style="fill:none; stroke-width:0px;"/></g><rect id="playCage-2" x="1.09" y="204.43" width="40.76" height="33.3" style="fill:none; stroke-width:0px;"/><rect id="playCage-1" x="1.17" y="85.7" width="40.76" height="33.3" style="fill:none; stroke-width:0px;"/><rect id="extension-2" x="1.09" y="204.43" width="40.76" height="33.39" style="fill:none; stroke-width:0px;"/><rect id="extension-1" x="1.17" y="85.7" width="40.76" height="33.3" style="fill:none; stroke-width:0px;"/></g><g id="cage-2"><path id="YCage" d="M.5,238.5v-119" style="fill:none; stroke:#010101; stroke-miterlimit:13.33;"/><text id="name" transform="translate(54.4 187.07) scale(.93 1)" style="fill:#010101; font-family:MyriadPro-Regular, &apos;Myriad Pro&apos;; font-size:25.9px;"><tspan x="0" y="0">x</tspan></text><rect id="cageRect" x=".5" y="119.5" width="119" height="119" style="fill:none; stroke-width:0px;"/><path id="XCage" d="M.5,238.5h119" style="fill:none; stroke:#010101; stroke-miterlimit:13.33;"/></g><g id="cage-1"><path id="YCage-2" d="M.5,119.5V.5" style="fill:none; stroke:#010101; stroke-miterlimit:13.33;"/><path id="XCage-2" d="M.5.5h119" style="fill:none; stroke:#010101; stroke-miterlimit:13.33;"/><text id="name-2" transform="translate(54.4 68.07) scale(.93 1)" style="fill:#010101; font-family:MyriadPro-Regular, &apos;Myriad Pro&apos;; font-size:25.9px;"><tspan x="0" y="0">x</tspan></text><rect id="cageRect-2" x=".5" y=".5" width="119" height="119" style="fill:none; stroke-width:0px;"/></g><g id="edit"><rect id="edit-blur" x=".5" y=".5" width="119" height="238" style="fill:none; opacity:.9; stroke-width:0px;"/><path id="add-rack" d="M60,99.33c11.12,0,20.17,9.05,20.17,20.17s-9.05,20.17-20.17,20.17-20.17-9.05-20.17-20.17,9.05-20.17,20.17-20.17ZM60,95.3c-13.37,0-24.2,10.84-24.2,24.2s10.84,24.2,24.2,24.2,24.2-10.84,24.2-24.2-10.84-24.2-24.2-24.2ZM72.1,121.52h-10.08v10.08h-4.03v-10.08h-10.08v-4.03h10.08v-10.08h4.03v10.08h10.08v4.03Z" style="fill:none; stroke-width:0px;"/><path id="del-rack" d="M60,99.33c11.12,0,20.17,9.05,20.17,20.17s-9.05,20.17-20.17,20.17-20.17-9.05-20.17-20.17,9.05-20.17,20.17-20.17ZM60,95.3c-13.37,0-24.2,10.84-24.2,24.2s10.84,24.2,24.2,24.2,24.2-10.84,24.2-24.2-10.84-24.2-24.2-24.2ZM72.1,121.52h-24.2v-4.03h24.2v4.03Z" style="fill:none; stroke-width:0px;"/></g></g></svg>