<?xml version="1.0" encoding="UTF-8"?><svg id="two-rack-horizontal-template" xmlns="http://www.w3.org/2000/svg" width="239.11" height="120" viewBox="0 0 239.11 120"><g id="rack-x"><g id="modifications"><g id="CTunnel-1"><line id="cLine-1" x1="83.97" y1="60.49" x2="154.8" y2="60.49" style="fill:none; stroke-width:0px;"/><circle id="circle-3" cx="177.49" cy="60.49" r="22.69" style="fill:none; stroke-width:0px;"/><circle id="circle-1" cx="61.28" cy="60.49" r="22.69" style="fill:none; stroke-width:0px;"/></g><rect id="playCage-2" x="201.49" y="82.38" width="40.76" height="33.3" transform="translate(122.84 320.89) rotate(-90)" style="fill:none; stroke-width:0px;"/><rect id="playCage-1" x="82.76" y="82.3" width="40.76" height="33.3" transform="translate(4.2 202.08) rotate(-90)" style="fill:none; stroke-width:0px;"/><rect id="extension-2" x="201.53" y="82.33" width="40.76" height="33.39" transform="translate(122.89 320.94) rotate(-90)" style="fill:none; stroke-width:0px;"/><rect id="extension-1" x="82.76" y="82.3" width="40.76" height="33.3" transform="translate(4.2 202.08) rotate(-90)" style="fill:none; stroke-width:0px;"/></g><g id="separators"><path id="F1" d="M119.6,119.5V.5" style="fill:none; stroke:#010101; stroke-miterlimit:13.33;"/></g><g id="cage-2"><text id="name" transform="translate(173.59 68.07) scale(.93 1)" style="fill:#010101; font-family:MyriadPro-Regular, &apos;Myriad Pro&apos;; font-size:25.9px;"><tspan x="0" y="0">x</tspan></text><rect id="cageRect" x="119.69" y=".5" width="119" height="119" style="fill:none; stroke-width:0px;"/><path id="leftDivider" d="M119.69,119.5h119" style="fill:none; stroke:#010101; stroke-miterlimit:13.33;"/><path id="floor" d="M238.61,119.5V.5" style="fill:none; stroke:#010101; stroke-miterlimit:13.33;"/><path id="rightDivider" d="M119.69.5h119" style="fill:none; stroke:#010101; stroke-miterlimit:13.33;"/></g><g id="cage-1"><path id="roof" d="M.5,119.5V.5" style="fill:none; stroke:#010101; stroke-miterlimit:13.33;"/><path id="rightDivider-2" d="M.5.5h119" style="fill:none; stroke:#010101; stroke-miterlimit:13.33;"/><text id="name-2" transform="translate(54.4 68.07) scale(.93 1)" style="fill:#010101; font-family:MyriadPro-Regular, &apos;Myriad Pro&apos;; font-size:25.9px;"><tspan x="0" y="0">x</tspan></text><rect id="cageRect-2" x=".5" y=".5" width="119" height="119" style="fill:none; stroke-width:0px;"/><path id="leftDivider-2" d="M1.27,119.5h117.83" style="fill:none; stroke:#010101; stroke-miterlimit:13.33;"/></g></g></svg>